<?xml version="1.0" encoding="utf-8"?>
<!-- Generator: Adobe Illustrator 24.0.1, SVG Export Plug-In . SVG Version: 6.00 Build 0)  -->
<svg version="1.1" id="Layer" xmlns="http://www.w3.org/2000/svg" xmlns:xlink="http://www.w3.org/1999/xlink" x="0px" y="0px"
	 viewBox="0 0 570.08 173.9" style="enable-background:new 0 0 570.08 173.9;" xml:space="preserve">
<style type="text/css">
	.st0{fill-rule:evenodd;clip-rule:evenodd;fill:#FFCB05;}
	.st1{fill-rule:evenodd;clip-rule:evenodd;fill:#0066B3;}
	.st2{fill-rule:evenodd;clip-rule:evenodd;fill:#ED1C24;}
	.st3{fill-rule:evenodd;clip-rule:evenodd;fill:#00AEEF;}
	.st4{fill-rule:evenodd;clip-rule:evenodd;fill:#F58220;}
	.st5{fill-rule:evenodd;clip-rule:evenodd;fill:#00A651;}
	.st6{fill-rule:evenodd;clip-rule:evenodd;fill:#7670B3;}
	.st7{fill-rule:evenodd;clip-rule:evenodd;fill:#C657A0;}
	.st8{fill-rule:evenodd;clip-rule:evenodd;fill:#A6CE39;}
</style>
<g>
	<g>
		<circle class="st0" cx="4.08" cy="99.29" r="4.08"/>
		<path class="st0" d="M9.85,105.06c1.59-1.59,4.18-1.59,5.77,0c1.59,1.59,1.59,4.18,0,5.77c-1.59,1.59-4.18,1.59-5.77,0
			C8.26,109.24,8.26,106.65,9.85,105.06z"/>
		<path class="st0" d="M18.51,113.72c1.59-1.59,4.18-1.59,5.77,0c1.59,1.59,1.59,4.18,0,5.77c-1.59,1.59-4.18,1.59-5.77,0
			C16.91,117.89,16.91,115.31,18.51,113.72z"/>
		<path class="st1" d="M35.82,113.72c1.59-1.59,4.18-1.59,5.77,0c1.59,1.59,1.59,4.18,0,5.77c-1.59,1.59-4.18,1.59-5.77,0
			C34.22,117.89,34.22,115.31,35.82,113.72z"/>
		<path class="st2" d="M44.47,105.06c1.59-1.59,4.18-1.59,5.77,0c1.59,1.59,1.59,4.18,0,5.77c-1.59,1.59-4.18,1.59-5.77,0
			C42.88,109.24,42.88,106.65,44.47,105.06z"/>
		<path class="st3" d="M61.78,87.75c1.59-1.59,4.18-1.59,5.77,0c1.59,1.59,1.59,4.18,0,5.77c-1.59,1.59-4.18,1.59-5.77,0
			C60.19,91.93,60.19,89.34,61.78,87.75z"/>
		<path class="st4" d="M70.44,79.09c1.59-1.59,4.18-1.59,5.77,0c1.59,1.59,1.59,4.18,0,5.77c-1.59,1.59-4.18,1.59-5.77,0
			C68.85,83.27,68.85,80.69,70.44,79.09z"/>
		<path class="st5" d="M79.09,70.44c1.59-1.59,4.18-1.59,5.77,0c1.59,1.59,1.59,4.18,0,5.77c-1.59,1.59-4.18,1.59-5.77,0
			C77.5,74.62,77.5,72.03,79.09,70.44z"/>
		<path class="st6" d="M87.75,61.78c1.59-1.59,4.18-1.59,5.77,0c1.59,1.59,1.59,4.18,0,5.77c-1.59,1.59-4.18,1.59-5.77,0
			C86.16,65.96,86.16,63.38,87.75,61.78z"/>
		<path class="st3" d="M96.4,53.13c1.59-1.59,4.18-1.59,5.77,0c1.59,1.59,1.59,4.18,0,5.77c-1.59,1.59-4.18,1.59-5.77,0
			C94.81,57.3,94.81,54.72,96.4,53.13z"/>
		<circle class="st0" cx="107.95" cy="47.36" r="4.08"/>
		<path class="st3" d="M113.72,35.82c1.59-1.59,4.18-1.59,5.77,0c1.59,1.59,1.59,4.18,0,5.77c-1.59,1.59-4.18,1.59-5.77,0
			C112.12,39.99,112.12,37.41,113.72,35.82z"/>
		<path class="st7" d="M122.37,27.16c1.59-1.59,4.18-1.59,5.77,0c1.59,1.59,1.59,4.18,0,5.77c-1.59,1.59-4.18,1.59-5.77,0
			C120.78,31.34,120.78,28.75,122.37,27.16z"/>
		<path class="st4" d="M131.03,18.51c1.59-1.59,4.18-1.59,5.77,0c1.59,1.59,1.59,4.18,0,5.77c-1.59,1.59-4.18,1.59-5.77,0
			C129.43,22.68,129.43,20.1,131.03,18.51z"/>
		<path class="st8" d="M139.68,9.85c1.59-1.59,4.18-1.59,5.77,0c1.59,1.59,1.59,4.18,0,5.77c-1.59,1.59-4.18,1.59-5.77,0
			C138.09,14.03,138.09,11.44,139.68,9.85z"/>
		<path class="st4" d="M148.34,1.2c1.59-1.59,4.18-1.59,5.77,0c1.59,1.59,1.59,4.18,0,5.77c-1.59,1.59-4.18,1.59-5.77,0
			C146.74,5.37,146.74,2.79,148.34,1.2z"/>
		<path class="st1" d="M53.13,96.41c1.59-1.59,4.18-1.59,5.77,0c1.59,1.59,1.59,4.18,0,5.77c-1.59,1.59-4.18,1.59-5.77,0
			C51.53,100.58,51.53,98,53.13,96.41z"/>
		<path class="st2" d="M53.13,113.72c1.59-1.59,4.18-1.59,5.77,0c1.59,1.59,1.59,4.18,0,5.77c-1.59,1.59-4.18,1.59-5.77,0
			C51.53,117.89,51.53,115.31,53.13,113.72z"/>
		<path class="st2" d="M61.78,122.37c1.59-1.59,4.18-1.59,5.77,0c1.59,1.59,1.59,4.18,0,5.77c-1.59,1.59-4.18,1.59-5.77,0
			C60.19,126.55,60.19,123.96,61.78,122.37z"/>
		<path class="st2" d="M70.44,131.03c1.59-1.59,4.18-1.59,5.77,0c1.59,1.59,1.59,4.18,0,5.77c-1.59,1.59-4.18,1.59-5.77,0
			C68.84,135.2,68.84,132.62,70.44,131.03z"/>
		<circle class="st3" cx="73.32" cy="99.29" r="4.08"/>
		<circle class="st3" cx="81.98" cy="107.95" r="4.08"/>
		<path class="st3" d="M87.75,113.72c1.59-1.59,4.18-1.59,5.77,0c1.59,1.59,1.59,4.18,0,5.77c-1.59,1.59-4.18,1.59-5.77,0
			C86.16,117.89,86.16,115.31,87.75,113.72z"/>
		<path class="st3" d="M96.4,122.37c1.59-1.59,4.18-1.59,5.77,0c1.59,1.59,1.59,4.18,0,5.77c-1.59,1.59-4.18,1.59-5.77,0
			C94.81,126.55,94.81,123.96,96.4,122.37z"/>
		<path class="st4" d="M79.09,87.75c1.59-1.59,4.18-1.59,5.77,0c1.59,1.59,1.59,4.18,0,5.77c-1.59,1.59-4.18,1.59-5.77,0
			C77.5,91.93,77.5,89.34,79.09,87.75z"/>
		<path class="st4" d="M87.75,96.4c1.59-1.59,4.18-1.59,5.77,0c1.59,1.59,1.59,4.18,0,5.77c-1.59,1.59-4.18,1.59-5.77,0
			C86.16,100.58,86.16,98,87.75,96.4z"/>
		<path class="st4" d="M96.4,105.06c1.59-1.59,4.18-1.59,5.77,0c1.59,1.59,1.59,4.18,0,5.77c-1.59,1.59-4.18,1.59-5.77,0
			C94.81,109.24,94.81,106.65,96.4,105.06z"/>
		<circle class="st4" cx="107.95" cy="116.6" r="4.08"/>
		<path class="st4" d="M113.72,122.37c1.59-1.59,4.18-1.59,5.77,0c1.59,1.59,1.59,4.18,0,5.77c-1.59,1.59-4.18,1.59-5.77,0
			C112.12,126.55,112.12,123.96,113.72,122.37z"/>
		<path class="st4" d="M122.37,131.03c1.59-1.59,4.18-1.59,5.77,0c1.59,1.59,1.59,4.18,0,5.77c-1.59,1.59-4.18,1.59-5.77,0
			C120.78,135.2,120.78,132.62,122.37,131.03z"/>
		<path class="st4" d="M131.03,139.68c1.59-1.59,4.18-1.59,5.77,0c1.59,1.59,1.59,4.18,0,5.77c-1.59,1.59-4.18,1.59-5.77,0
			C129.43,143.86,129.43,141.28,131.03,139.68z"/>
		<path class="st4" d="M139.68,148.34c1.59-1.59,4.18-1.59,5.77,0c1.59,1.59,1.59,4.18,0,5.77c-1.59,1.59-4.18,1.59-5.77,0
			C138.09,152.51,138.09,149.93,139.68,148.34z"/>
		<path class="st5" d="M87.75,79.09c1.59-1.59,4.18-1.59,5.77,0c1.59,1.59,1.59,4.18,0,5.77c-1.59,1.59-4.18,1.59-5.77,0
			C86.16,83.27,86.16,80.69,87.75,79.09z"/>
		<path class="st6" d="M96.4,70.44c1.59-1.59,4.18-1.59,5.77,0c1.59,1.59,1.59,4.18,0,5.77c-1.59,1.59-4.18,1.59-5.77,0
			C94.81,74.62,94.81,72.03,96.4,70.44z"/>
		<path class="st6" d="M105.06,79.09c1.59-1.59,4.18-1.59,5.77,0c1.59,1.59,1.59,4.18,0,5.77c-1.59,1.59-4.18,1.59-5.77,0
			C103.47,83.27,103.47,80.69,105.06,79.09z"/>
		<path class="st6" d="M113.72,87.75c1.59-1.59,4.18-1.59,5.77,0c1.59,1.59,1.59,4.18,0,5.77c-1.59,1.59-4.18,1.59-5.77,0
			C112.12,91.93,112.12,89.34,113.72,87.75z"/>
		<circle class="st6" cx="125.26" cy="99.29" r="4.08"/>
		<path class="st6" d="M131.03,105.06c1.59-1.59,4.18-1.59,5.77,0c1.59,1.59,1.59,4.18,0,5.77c-1.59,1.59-4.18,1.59-5.77,0
			C129.43,109.24,129.43,106.65,131.03,105.06z"/>
		<circle class="st3" cx="107.95" cy="64.67" r="4.08"/>
		<path class="st3" d="M113.72,70.44c1.59-1.59,4.18-1.59,5.77,0c1.59,1.59,1.59,4.18,0,5.77c-1.59,1.59-4.18,1.59-5.77,0
			C112.12,74.62,112.12,72.03,113.72,70.44z"/>
		<path class="st3" d="M122.37,79.09c1.59-1.59,4.18-1.59,5.77,0c1.59,1.59,1.59,4.18,0,5.77c-1.59,1.59-4.18,1.59-5.77,0
			C120.78,83.27,120.78,80.69,122.37,79.09z"/>
		<path class="st3" d="M131.03,87.75c1.59-1.59,4.18-1.59,5.77,0c1.59,1.59,1.59,4.18,0,5.77c-1.59,1.59-4.18,1.59-5.77,0
			C129.43,91.93,129.43,89.34,131.03,87.75z"/>
		<circle class="st0" cx="116.6" cy="56.01" r="4.08"/>
		<circle class="st0" cx="125.26" cy="64.67" r="4.08"/>
		<circle class="st3" cx="125.26" cy="47.36" r="4.08"/>
		<path class="st3" d="M131.03,53.13c1.59-1.59,4.18-1.59,5.77,0c1.59,1.59,1.59,4.18,0,5.77c-1.59,1.59-4.18,1.59-5.77,0
			C129.43,57.3,129.43,54.72,131.03,53.13z"/>
		<path class="st3" d="M139.68,61.78c1.59-1.59,4.18-1.59,5.77,0c1.59,1.59,1.59,4.18,0,5.77c-1.59,1.59-4.18,1.59-5.77,0
			C138.09,65.96,138.09,63.38,139.68,61.78z"/>
		<path class="st3" d="M148.34,70.44c1.59-1.59,4.18-1.59,5.77,0c1.59,1.59,1.59,4.18,0,5.77c-1.59,1.59-4.18,1.59-5.77,0
			C146.74,74.62,146.74,72.03,148.34,70.44z"/>
		<path class="st7" d="M131.03,35.82c1.59-1.59,4.18-1.59,5.77,0c1.59,1.59,1.59,4.18,0,5.77c-1.59,1.59-4.18,1.59-5.77,0
			C129.43,39.99,129.43,37.41,131.03,35.82z"/>
		<path class="st7" d="M139.68,44.47c1.59-1.59,4.18-1.59,5.77,0c1.59,1.59,1.59,4.18,0,5.77c-1.59,1.59-4.18,1.59-5.77,0
			C138.09,48.65,138.09,46.07,139.68,44.47z"/>
		<path class="st7" d="M148.34,53.13c1.59-1.59,4.18-1.59,5.77,0c1.59,1.59,1.59,4.18,0,5.77c-1.59,1.59-4.18,1.59-5.77,0
			C146.74,57.3,146.74,54.72,148.34,53.13z"/>
		<circle class="st7" cx="159.88" cy="64.67" r="4.08"/>
		<path class="st7" d="M165.65,70.44c1.59-1.59,4.18-1.59,5.77,0c1.59,1.59,1.59,4.18,0,5.77c-1.59,1.59-4.18,1.59-5.77,0
			C164.06,74.62,164.06,72.03,165.65,70.44z"/>
		<path class="st7" d="M174.3,79.09c1.59-1.59,4.18-1.59,5.77,0c1.59,1.59,1.59,4.18,0,5.77c-1.59,1.59-4.18,1.59-5.77,0
			C172.71,83.27,172.71,80.69,174.3,79.09z"/>
		<path class="st7" d="M182.96,87.75c1.59-1.59,4.18-1.59,5.77,0c1.59,1.59,1.59,4.18,0,5.77c-1.59,1.59-4.18,1.59-5.77,0
			C181.37,91.93,181.37,89.34,182.96,87.75z"/>
		<path class="st4" d="M139.68,27.16c1.59-1.59,4.18-1.59,5.77,0c1.59,1.59,1.59,4.18,0,5.77c-1.59,1.59-4.18,1.59-5.77,0
			C138.09,31.34,138.09,28.75,139.68,27.16z"/>
		<path class="st4" d="M148.34,35.82c1.59-1.59,4.18-1.59,5.77,0c1.59,1.59,1.59,4.18,0,5.77c-1.59,1.59-4.18,1.59-5.77,0
			C146.74,39.99,146.74,37.41,148.34,35.82z"/>
		<circle class="st4" cx="159.88" cy="47.36" r="4.08"/>
		<circle class="st4" cx="168.53" cy="56.01" r="4.08"/>
		<circle class="st4" cx="177.19" cy="64.67" r="4.08"/>
		<path class="st4" d="M182.96,70.44c1.59-1.59,4.18-1.59,5.77,0c1.59,1.59,1.59,4.18,0,5.77c-1.59,1.59-4.18,1.59-5.77,0
			C181.37,74.62,181.37,72.03,182.96,70.44z"/>
		<path class="st4" d="M191.61,79.09c1.59-1.59,4.18-1.59,5.77,0c1.59,1.59,1.59,4.18,0,5.77c-1.59,1.59-4.18,1.59-5.77,0
			C190.02,83.27,190.02,80.69,191.61,79.09z"/>
		<path class="st4" d="M200.27,87.75c1.59-1.59,4.18-1.59,5.77,0c1.59,1.59,1.59,4.18,0,5.77c-1.59,1.59-4.18,1.59-5.77,0
			C198.68,91.93,198.68,89.34,200.27,87.75z"/>
		<path class="st8" d="M148.34,18.51c1.59-1.59,4.18-1.59,5.77,0c1.59,1.59,1.59,4.18,0,5.77c-1.59,1.59-4.18,1.59-5.77,0
			C146.74,22.68,146.74,20.1,148.34,18.51z"/>
		<path class="st8" d="M156.99,27.16c1.59-1.59,4.18-1.59,5.77,0c1.59,1.59,1.59,4.18,0,5.77c-1.59,1.59-4.18,1.59-5.77,0
			C155.4,31.34,155.4,28.75,156.99,27.16z"/>
		<path class="st8" d="M165.65,35.82c1.59-1.59,4.18-1.59,5.77,0c1.59,1.59,1.59,4.18,0,5.77c-1.59,1.59-4.18,1.59-5.77,0
			C164.06,39.99,164.06,37.41,165.65,35.82z"/>
		<circle class="st8" cx="177.19" cy="47.36" r="4.08"/>
		<path class="st8" d="M182.96,53.13c1.59-1.59,4.18-1.59,5.77,0c1.59,1.59,1.59,4.18,0,5.77c-1.59,1.59-4.18,1.59-5.77,0
			C181.37,57.3,181.37,54.72,182.96,53.13z"/>
		<path class="st8" d="M191.61,61.78c1.59-1.59,4.18-1.59,5.77,0c1.59,1.59,1.59,4.18,0,5.77c-1.59,1.59-4.18,1.59-5.77,0
			C190.02,65.96,190.02,63.38,191.61,61.78z"/>
		<path class="st4" d="M156.99,9.85c1.59-1.59,4.18-1.59,5.77,0c1.59,1.59,1.59,4.18,0,5.77c-1.59,1.59-4.18,1.59-5.77,0
			C155.4,14.03,155.4,11.44,156.99,9.85z"/>
		<circle class="st4" cx="168.53" cy="21.39" r="4.08"/>
		<path class="st4" d="M174.3,27.16c1.59-1.59,4.18-1.59,5.77,0c1.59,1.59,1.59,4.18,0,5.77c-1.59,1.59-4.18,1.59-5.77,0
			C172.71,31.34,172.71,28.75,174.3,27.16z"/>
		<path class="st4" d="M182.96,35.82c1.59-1.59,4.18-1.59,5.77,0c1.59,1.59,1.59,4.18,0,5.77c-1.59,1.59-4.18,1.59-5.77,0
			C181.37,39.99,181.37,37.41,182.96,35.82z"/>
		<path class="st4" d="M191.61,44.47c1.59-1.59,4.18-1.59,5.77,0c1.59,1.59,1.59,4.18,0,5.77c-1.59,1.59-4.18,1.59-5.77,0
			C190.02,48.65,190.02,46.07,191.61,44.47z"/>
		<circle class="st4" cx="203.16" cy="56.01" r="4.08"/>
		<circle class="st4" cx="211.81" cy="64.67" r="4.08"/>
		<path class="st4" d="M217.58,70.44c1.59-1.59,4.18-1.59,5.77,0c1.59,1.59,1.59,4.18,0,5.77c-1.59,1.59-4.18,1.59-5.77,0
			C215.99,74.62,215.99,72.03,217.58,70.44z"/>
	</g>
</g>
<g>
	<path d="M229.6,153.53h-2.29c-0.24,0-0.43-0.21-0.43-0.45v-1.49c0-0.09,0.07-0.28,0.14-0.36l3.48-2.7h2.19
		c0.24,0,0.43,0.21,0.43,0.45v15.22c0,0.24-0.19,0.45-0.43,0.45h-2.64c-0.26,0-0.45-0.21-0.45-0.45V153.53z"/>
	<path d="M235.77,160.86v-2.51l8.31-9.94c0.07-0.07,0.14-0.14,0.36-0.14h1.71c0.24,0,0.45,0.19,0.45,0.45l0.02,9.72h1.88
		c0.26,0,0.45,0.19,0.45,0.43v1.97c0,0.24-0.19,0.45-0.45,0.45h-1.88l0.02,2.92c0,0.24-0.21,0.45-0.45,0.45h-2.55
		c-0.24,0-0.45-0.21-0.45-0.45v-2.89h-6.98C235.96,161.31,235.77,161.1,235.77,160.86z M243.29,158.37v-4.41l-3.79,4.41H243.29z"/>
	<path d="M257.87,148.15c0.05-0.19,0.24-0.33,0.43-0.33h0.38c0.17,0,0.36,0.12,0.41,0.26l4.72,13.07c0.05,0,0.07,0,0.12,0
		l4.64-13.07c0.05-0.14,0.24-0.26,0.41-0.26h0.38c0.19,0,0.38,0.14,0.43,0.33l3.07,15.93c0.07,0.33-0.07,0.57-0.43,0.57h-0.95
		c-0.19,0-0.38-0.17-0.43-0.33l-2.12-12.21c-0.02,0-0.07,0-0.1,0l-4.38,12.52c-0.05,0.14-0.26,0.26-0.41,0.26h-0.43
		c-0.14,0-0.36-0.12-0.41-0.26l-4.43-12.52c-0.02,0-0.07,0-0.1,0l-2.07,12.21c-0.02,0.17-0.24,0.33-0.43,0.33h-0.95
		c-0.36,0-0.5-0.24-0.43-0.57L257.87,148.15z"/>
	<path d="M273.52,164.04l7.24-15.96c0.07-0.14,0.19-0.26,0.41-0.26h0.24c0.21,0,0.33,0.12,0.4,0.26l7.19,15.96
		c0.14,0.31-0.05,0.62-0.4,0.62h-0.95c-0.21,0-0.36-0.14-0.41-0.26l-1.76-3.91h-8.46l-1.74,3.91c-0.05,0.12-0.19,0.26-0.4,0.26
		h-0.95C273.57,164.65,273.38,164.34,273.52,164.04z M284.83,159.01c-1.17-2.58-2.31-5.19-3.48-7.78h-0.19l-3.48,7.78H284.83z"/>
	<path d="M290.88,148.5c0-0.24,0.19-0.45,0.45-0.45h6.17c2.86,0,5.19,2.23,5.19,5.05c0,2.18-1.45,4.01-3.53,4.84l3.26,6.02
		c0.17,0.31,0,0.69-0.4,0.69h-1.21c-0.21,0-0.33-0.12-0.38-0.21l-3.17-6.28h-4.55v6.05c0,0.24-0.21,0.45-0.45,0.45h-0.93
		c-0.26,0-0.45-0.21-0.45-0.45V148.5z M297.39,156.59c1.83,0,3.43-1.52,3.43-3.46c0-1.8-1.6-3.34-3.43-3.34h-4.62v6.8H297.39z"/>
	<path d="M304.84,162.16c0.12-0.14,0.24-0.31,0.36-0.45c0.24-0.31,0.5-0.5,0.83-0.21c0.17,0.14,1.91,1.8,4.03,1.8
		c1.93,0,3.19-1.21,3.19-2.61c0-1.64-1.43-2.61-4.17-3.75c-2.62-1.14-4.19-2.21-4.19-4.91c0-1.61,1.29-4.22,5.07-4.22
		c2.33,0,4.07,1.21,4.07,1.21c0.14,0.07,0.43,0.36,0.14,0.81c-0.09,0.14-0.19,0.31-0.29,0.45c-0.21,0.33-0.45,0.43-0.83,0.21
		c-0.17-0.09-1.67-1.09-3.12-1.09c-2.53,0-3.29,1.61-3.29,2.61c0,1.59,1.21,2.51,3.22,3.34c3.21,1.3,5.29,2.51,5.29,5.26
		c0,2.47-2.36,4.27-5.14,4.27c-2.81,0-4.72-1.64-5.03-1.92C304.79,162.8,304.56,162.61,304.84,162.16z"/>
</g>
<g>
	<path d="M146.03,124.65c0-0.2,0.16-0.38,0.36-0.38h4.49c3.87,0,7.04,3.13,7.04,6.96c0,3.87-3.17,7.01-7.04,7.01h-4.49
		c-0.2,0-0.36-0.18-0.36-0.38V124.65z M150.56,136.86c3.29,0,5.67-2.33,5.67-5.63c0-3.27-2.39-5.61-5.67-5.61h-3.01v11.24H150.56z"
		/>
	<path d="M160.41,124.65c0-0.2,0.16-0.38,0.38-0.38h7.9c0.22,0,0.38,0.18,0.38,0.38v0.58c0,0.2-0.16,0.38-0.38,0.38h-6.74v4.87h5.75
		c0.2,0,0.38,0.18,0.38,0.38v0.58c0,0.22-0.18,0.38-0.38,0.38h-5.75v5.09h6.74c0.22,0,0.38,0.18,0.38,0.38v0.58
		c0,0.2-0.16,0.38-0.38,0.38h-7.9c-0.22,0-0.38-0.18-0.38-0.38V124.65z"/>
	<path d="M170.78,136.15c0.1-0.12,0.2-0.26,0.3-0.38c0.2-0.26,0.42-0.42,0.7-0.18c0.14,0.12,1.6,1.52,3.39,1.52
		c1.62,0,2.69-1.02,2.69-2.2c0-1.38-1.2-2.2-3.51-3.15c-2.21-0.96-3.53-1.86-3.53-4.13c0-1.36,1.08-3.55,4.27-3.55
		c1.96,0,3.43,1.02,3.43,1.02c0.12,0.06,0.36,0.3,0.12,0.68c-0.08,0.12-0.16,0.26-0.24,0.38c-0.18,0.28-0.38,0.36-0.7,0.18
		c-0.14-0.08-1.4-0.92-2.63-0.92c-2.12,0-2.77,1.36-2.77,2.2c0,1.34,1.02,2.12,2.71,2.81c2.71,1.1,4.45,2.12,4.45,4.43
		c0,2.08-1.98,3.59-4.33,3.59c-2.37,0-3.97-1.38-4.23-1.62C170.74,136.68,170.54,136.52,170.78,136.15z"/>
</g>
<g>
	<path d="M411.4,80.27c0-0.2,0.18-0.38,0.38-0.38h0.8c0.2,0,0.38,0.18,0.38,0.38v13.21c0,0.2-0.18,0.38-0.38,0.38h-0.8
		c-0.2,0-0.38-0.18-0.38-0.38V80.27z"/>
	<path d="M416.46,80.05c0-0.2,0.18-0.36,0.38-0.36h0.5l9.04,11.22c0.02,0,0.02,0,0.04,0V80.27c0-0.2,0.16-0.38,0.38-0.38h0.7
		c0.2,0,0.38,0.18,0.38,0.38V93.7c0,0.2-0.18,0.36-0.38,0.36h-0.36l-9.2-11.44h-0.02v10.86c0,0.2-0.16,0.38-0.38,0.38h-0.7
		c-0.2,0-0.38-0.18-0.38-0.38V80.05z"/>
	<path d="M433.36,81.23h-3.49c-0.22,0-0.38-0.18-0.38-0.38v-0.58c0-0.2,0.16-0.38,0.38-0.38h8.5c0.22,0,0.38,0.18,0.38,0.38v0.58
		c0,0.2-0.16,0.38-0.38,0.38h-3.49v12.25c0,0.2-0.18,0.38-0.38,0.38h-0.76c-0.2,0-0.38-0.18-0.38-0.38V81.23z"/>
	<path d="M440.36,80.27c0-0.2,0.16-0.38,0.38-0.38h7.9c0.22,0,0.38,0.18,0.38,0.38v0.58c0,0.2-0.16,0.38-0.38,0.38h-6.74v4.87h5.75
		c0.2,0,0.38,0.18,0.38,0.38v0.58c0,0.22-0.18,0.38-0.38,0.38h-5.75v5.09h6.74c0.22,0,0.38,0.18,0.38,0.38v0.58
		c0,0.2-0.16,0.38-0.38,0.38h-7.9c-0.22,0-0.38-0.18-0.38-0.38V80.27z"/>
	<path d="M451.63,80.27c0-0.2,0.16-0.38,0.38-0.38h5.19c2.41,0,4.37,1.88,4.37,4.25c0,1.84-1.22,3.37-2.97,4.07l2.75,5.07
		c0.14,0.26,0,0.58-0.34,0.58h-1.02c-0.18,0-0.28-0.1-0.32-0.18L457,88.39h-3.83v5.09c0,0.2-0.18,0.38-0.38,0.38h-0.78
		c-0.22,0-0.38-0.18-0.38-0.38V80.27z M457.1,87.07c1.54,0,2.89-1.28,2.89-2.91c0-1.52-1.34-2.81-2.89-2.81h-3.89v5.73H457.1z"/>
	<path d="M464.29,80.05c0-0.2,0.18-0.36,0.38-0.36h0.5l9.04,11.22c0.02,0,0.02,0,0.04,0V80.27c0-0.2,0.16-0.38,0.38-0.38h0.7
		c0.2,0,0.38,0.18,0.38,0.38V93.7c0,0.2-0.18,0.36-0.38,0.36h-0.36l-9.2-11.44h-0.02v10.86c0,0.2-0.16,0.38-0.38,0.38h-0.7
		c-0.2,0-0.38-0.18-0.38-0.38V80.05z"/>
	<path d="M477.28,93.34l6.1-13.43c0.06-0.12,0.16-0.22,0.34-0.22h0.2c0.18,0,0.28,0.1,0.34,0.22l6.05,13.43
		c0.12,0.26-0.04,0.52-0.34,0.52h-0.8c-0.18,0-0.3-0.12-0.34-0.22l-1.48-3.29h-7.12l-1.46,3.29c-0.04,0.1-0.16,0.22-0.34,0.22h-0.8
		C477.32,93.86,477.16,93.6,477.28,93.34z M486.81,89.11c-0.98-2.18-1.95-4.37-2.93-6.55h-0.16l-2.93,6.55H486.81z"/>
	<path d="M493.1,81.23h-3.49c-0.22,0-0.38-0.18-0.38-0.38v-0.58c0-0.2,0.16-0.38,0.38-0.38h8.5c0.22,0,0.38,0.18,0.38,0.38v0.58
		c0,0.2-0.16,0.38-0.38,0.38h-3.49v12.25c0,0.2-0.18,0.38-0.38,0.38h-0.76c-0.2,0-0.38-0.18-0.38-0.38V81.23z"/>
	<path d="M500.1,80.27c0-0.2,0.18-0.38,0.38-0.38h0.8c0.2,0,0.38,0.18,0.38,0.38v13.21c0,0.2-0.18,0.38-0.38,0.38h-0.8
		c-0.2,0-0.38-0.18-0.38-0.38V80.27z"/>
	<path d="M511.33,79.69c4.01,0,7.22,3.21,7.22,7.2c0,3.99-3.21,7.17-7.22,7.17c-4.01,0-7.2-3.17-7.2-7.17
		C504.13,82.9,507.32,79.69,511.33,79.69z M511.33,92.66c3.19,0,5.81-2.59,5.81-5.77c0-3.17-2.63-5.81-5.81-5.81
		c-3.19,0-5.79,2.63-5.79,5.81C505.54,90.07,508.14,92.66,511.33,92.66z"/>
	<path d="M521.02,80.05c0-0.2,0.18-0.36,0.38-0.36h0.5l9.04,11.22c0.02,0,0.02,0,0.04,0V80.27c0-0.2,0.16-0.38,0.38-0.38h0.7
		c0.2,0,0.38,0.18,0.38,0.38V93.7c0,0.2-0.18,0.36-0.38,0.36h-0.36l-9.2-11.44h-0.02v10.86c0,0.2-0.16,0.38-0.38,0.38h-0.7
		c-0.2,0-0.38-0.18-0.38-0.38V80.05z"/>
	<path d="M534.02,93.34l6.1-13.43c0.06-0.12,0.16-0.22,0.34-0.22h0.2c0.18,0,0.28,0.1,0.34,0.22l6.06,13.43
		c0.12,0.26-0.04,0.52-0.34,0.52h-0.8c-0.18,0-0.3-0.12-0.34-0.22l-1.48-3.29h-7.12l-1.46,3.29c-0.04,0.1-0.16,0.22-0.34,0.22h-0.8
		C534.06,93.86,533.9,93.6,534.02,93.34z M543.54,89.11c-0.98-2.18-1.95-4.37-2.93-6.55h-0.16l-2.93,6.55H543.54z"/>
	<path d="M548.64,80.27c0-0.2,0.16-0.38,0.38-0.38h0.78c0.2,0,0.38,0.18,0.38,0.38v12.25h5.77c0.22,0,0.38,0.18,0.38,0.38v0.58
		c0,0.2-0.16,0.38-0.38,0.38h-6.94c-0.22,0-0.38-0.18-0.38-0.38V80.27z"/>
	<path d="M557.88,80.27c0-0.2,0.16-0.38,0.38-0.38h7.9c0.22,0,0.38,0.18,0.38,0.38v0.58c0,0.2-0.16,0.38-0.38,0.38h-6.74v4.87h5.75
		c0.2,0,0.38,0.18,0.38,0.38v0.58c0,0.22-0.18,0.38-0.38,0.38h-5.75v5.09h6.74c0.22,0,0.38,0.18,0.38,0.38v0.58
		c0,0.2-0.16,0.38-0.38,0.38h-7.9c-0.22,0-0.38-0.18-0.38-0.38V80.27z"/>
</g>
<g>
	<path d="M225.41,90.95l1.43-1.6c0.56-0.49,0.92-0.33,1.27,0.08c0.6,0.7,1.71,1.76,3.26,1.76c1.95,0,4.02-1.56,4.02-5.16V66.68
		c0-0.41,0.32-0.78,0.76-0.78h2.63c0.44,0,0.76,0.37,0.76,0.78V86c0,5.69-3.5,8.96-8.16,8.96c-3.46,0-5.37-2.13-6.05-2.99
		C225.14,91.64,225.18,91.24,225.41,90.95z"/>
	<path d="M257.91,65.49c7.96,0,14.32,6.59,14.32,14.77c0,8.18-6.37,14.69-14.32,14.69c-7.96,0-14.28-6.51-14.28-14.69
		C243.63,72.08,249.96,65.49,257.91,65.49z M257.91,90.87c5.69,0,10.34-4.75,10.34-10.6c0-5.81-4.65-10.68-10.34-10.68
		c-5.65,0-10.3,4.87-10.3,10.68C247.61,86.12,252.26,90.87,257.91,90.87z"/>
	<path d="M276.96,66.68c0-0.41,0.36-0.78,0.76-0.78h2.67c0.44,0,0.76,0.37,0.76,0.78v16.9c0,4.09,2.55,7.28,6.6,7.28
		c4.1,0,6.68-3.15,6.68-7.2V66.68c0-0.41,0.32-0.78,0.76-0.78h2.67c0.4,0,0.76,0.37,0.76,0.78v17.19c0,6.22-4.57,11.09-10.86,11.09
		c-6.25,0-10.78-4.87-10.78-11.09V66.68z"/>
	<path d="M305.36,66.68c0-0.41,0.32-0.78,0.76-0.78h10.82c4.77,0,8.67,3.89,8.67,8.76c0,3.77-2.43,6.88-5.89,8.31l5.45,10.39
		c0.28,0.53,0,1.19-0.68,1.19h-3.1c-0.32,0-0.56-0.21-0.64-0.37l-5.29-10.84h-6.01v10.44c0,0.41-0.36,0.78-0.76,0.78h-2.59
		c-0.44,0-0.76-0.37-0.76-0.78V66.68z M316.61,79.82c2.59,0,4.85-2.25,4.85-5.07c0-2.66-2.27-4.87-4.85-4.87h-7.08v9.94H316.61z"/>
	<path d="M331.21,66.23c0-0.41,0.36-0.74,0.76-0.74h1l17.26,20.54h0.04V66.68c0-0.41,0.32-0.78,0.76-0.78h2.55
		c0.4,0,0.76,0.37,0.76,0.78v27.54c0,0.41-0.36,0.74-0.76,0.74h-1.03l-17.26-21.12h-0.04v19.93c0,0.41-0.32,0.78-0.76,0.78h-2.51
		c-0.4,0-0.76-0.37-0.76-0.78V66.23z"/>
	<path d="M361.44,66.68c0-0.41,0.32-0.78,0.76-0.78h15.91c0.44,0,0.76,0.37,0.76,0.78v2.29c0,0.41-0.32,0.78-0.76,0.78h-12.57v8.35
		h10.62c0.4,0,0.76,0.37,0.76,0.78v2.29c0,0.45-0.36,0.78-0.76,0.78h-10.62v8.8h12.57c0.44,0,0.76,0.37,0.76,0.78v2.25
		c0,0.41-0.32,0.78-0.76,0.78h-15.91c-0.44,0-0.76-0.37-0.76-0.78V66.68z"/>
	<path d="M384.27,66.68c0-0.41,0.32-0.78,0.76-0.78h15.91c0.44,0,0.76,0.37,0.76,0.78v2.29c0,0.41-0.32,0.78-0.76,0.78h-12.57v8.35
		h10.62c0.4,0,0.76,0.37,0.76,0.78v2.29c0,0.45-0.36,0.78-0.76,0.78h-10.62v8.8h12.57c0.44,0,0.76,0.37,0.76,0.78v2.25
		c0,0.41-0.32,0.78-0.76,0.78h-15.91c-0.44,0-0.76-0.37-0.76-0.78V66.68z"/>
</g>
<g>
	<path d="M367.84,64.62l-0.42-0.89c-0.12-0.25,0-0.49,0.18-0.58l4.68-2.79c0.18-0.12,0.63-0.18,0.78,0.09l0.69,1.35
		c0.15,0.31,0.06,0.61-0.18,0.74l-5.01,2.21C368.14,64.95,367.96,64.86,367.84,64.62z"/>
</g>
<g>
	<path d="M191.77,105.45c0.05-0.38,0.32-0.7,0.82-0.7h0.73c0.36,0,0.64,0.19,0.77,0.47l10.01,22.1c0.09,0,0.09,0,0.14,0l10.01-22.1
		c0.14-0.28,0.36-0.47,0.77-0.47h0.73c0.5,0,0.77,0.33,0.82,0.7l5.37,31.47c0.14,0.66-0.23,1.08-0.82,1.08h-4.14
		c-0.41,0-0.77-0.38-0.86-0.7l-2.69-17.75c-0.05,0-0.14,0-0.14,0l-7.97,18.4c-0.09,0.28-0.36,0.52-0.77,0.52h-0.82
		c-0.41,0-0.64-0.23-0.77-0.52l-8.06-18.4c0,0-0.09,0-0.14,0l-2.64,17.75c-0.05,0.33-0.41,0.7-0.82,0.7h-4.1
		c-0.59,0-0.96-0.42-0.86-1.08L191.77,105.45z"/>
	<path d="M225.64,136.77l14.16-31.52c0.14-0.28,0.36-0.52,0.77-0.52h0.46c0.46,0,0.64,0.23,0.77,0.52l14.02,31.52
		c0.27,0.61-0.09,1.22-0.77,1.22h-3.96c-0.68,0-1-0.28-1.32-0.94l-2.23-5.06h-13.61l-2.23,5.06c-0.18,0.47-0.59,0.94-1.32,0.94
		h-3.96C225.73,137.99,225.36,137.38,225.64,136.77z M245.3,126.8l-4.55-10.3h-0.14l-4.46,10.3H245.3z"/>
	<path d="M261.41,110.83h-6.96c-0.5,0-0.86-0.42-0.86-0.89v-3.84c0-0.47,0.36-0.89,0.86-0.89h19.89c0.5,0,0.86,0.42,0.86,0.89v3.84
		c0,0.47-0.36,0.89-0.86,0.89h-6.96v26.27c0,0.47-0.41,0.89-0.86,0.89h-4.23c-0.46,0-0.87-0.42-0.87-0.89V110.83z"/>
	<path d="M281.53,106.1c0-0.47,0.41-0.89,0.87-0.89h4.23c0.5,0,0.86,0.42,0.86,0.89v12.41h14.84V106.1c0-0.47,0.36-0.89,0.87-0.89
		h4.19c0.46,0,0.86,0.42,0.86,0.89v31c0,0.47-0.41,0.89-0.86,0.89h-4.19c-0.5,0-0.87-0.42-0.87-0.89v-12.92H287.5v12.92
		c0,0.47-0.36,0.89-0.86,0.89h-4.23c-0.46,0-0.87-0.42-0.87-0.89V106.1z"/>
	<path d="M317.22,106.1c0-0.47,0.36-0.89,0.87-0.89h18.53c0.5,0,0.87,0.42,0.87,0.89v3.84c0,0.47-0.36,0.89-0.87,0.89h-13.47v7.68
		h11.24c0.46,0,0.87,0.42,0.87,0.89v3.89c0,0.51-0.41,0.89-0.87,0.89h-11.24v8.2h13.47c0.5,0,0.87,0.42,0.87,0.89v3.84
		c0,0.47-0.36,0.89-0.87,0.89h-18.53c-0.5,0-0.87-0.42-0.87-0.89V106.1z"/>
	<path d="M347.99,105.45c0.05-0.38,0.32-0.7,0.82-0.7h0.73c0.36,0,0.64,0.19,0.77,0.47l10.01,22.1c0.09,0,0.09,0,0.14,0l10.01-22.1
		c0.14-0.28,0.36-0.47,0.77-0.47h0.73c0.5,0,0.77,0.33,0.82,0.7l5.37,31.47c0.14,0.66-0.23,1.08-0.82,1.08h-4.14
		c-0.41,0-0.77-0.38-0.87-0.7l-2.69-17.75c-0.05,0-0.14,0-0.14,0l-7.96,18.4c-0.09,0.28-0.36,0.52-0.77,0.52h-0.82
		c-0.41,0-0.64-0.23-0.77-0.52l-8.06-18.4c0,0-0.09,0-0.14,0l-2.64,17.75c-0.05,0.33-0.41,0.7-0.82,0.7h-4.1
		c-0.59,0-0.96-0.42-0.87-1.08L347.99,105.45z"/>
	<path d="M381.86,136.77l14.16-31.52c0.14-0.28,0.36-0.52,0.77-0.52h0.46c0.46,0,0.64,0.23,0.77,0.52l14.02,31.52
		c0.27,0.61-0.09,1.22-0.77,1.22h-3.96c-0.68,0-1-0.28-1.32-0.94l-2.23-5.06h-13.61l-2.23,5.06c-0.18,0.47-0.59,0.94-1.32,0.94
		h-3.96C381.95,137.99,381.58,137.38,381.86,136.77z M401.52,126.8l-4.55-10.3h-0.14l-4.46,10.3H401.52z"/>
	<path d="M417.64,110.83h-6.96c-0.5,0-0.87-0.42-0.87-0.89v-3.84c0-0.47,0.36-0.89,0.87-0.89h19.89c0.5,0,0.86,0.42,0.86,0.89v3.84
		c0,0.47-0.36,0.89-0.86,0.89h-6.96v26.27c0,0.47-0.41,0.89-0.87,0.89h-4.23c-0.46,0-0.86-0.42-0.86-0.89V110.83z"/>
	<path d="M436.84,106.1c0-0.47,0.41-0.89,0.87-0.89h4.23c0.46,0,0.86,0.42,0.86,0.89v31c0,0.47-0.41,0.89-0.86,0.89h-4.23
		c-0.46,0-0.87-0.42-0.87-0.89V106.1z"/>
	<path d="M464.93,104.74c9.1,0,16.39,7.54,16.39,16.91c0,6.37-3.6,11.99-8.88,14.99l5.69,9.23c0.41,0.66,0,1.41-0.73,1.41h-4.83
		c-0.18,0-0.59-0.19-0.73-0.47l-4.87-8.48c-0.73,0.09-1.5,0.14-2.05,0.14c-9.1,0-16.34-7.45-16.34-16.81
		C448.59,112.28,455.83,104.74,464.93,104.74z M464.93,132.37c5.74,0,10.47-4.82,10.47-10.72s-4.73-10.82-10.47-10.82
		s-10.42,4.92-10.42,10.82S459.19,132.37,464.93,132.37z"/>
	<path d="M487.55,106.1c0-0.47,0.41-0.89,0.87-0.89h4.32c0.5,0,0.86,0.42,0.86,0.89v19.15c0,3.98,2.64,7.12,6.6,7.12
		s6.65-3.14,6.65-7.07v-19.2c0-0.47,0.36-0.89,0.86-0.89h4.32c0.46,0,0.87,0.42,0.87,0.89v19.48c0,7.12-5.51,12.88-12.7,12.88
		c-7.15,0-12.65-5.76-12.65-12.88V106.1z"/>
	<path d="M521.42,106.1c0-0.47,0.36-0.89,0.87-0.89h18.53c0.5,0,0.87,0.42,0.87,0.89v3.84c0,0.47-0.36,0.89-0.87,0.89h-13.47v7.68
		h11.24c0.46,0,0.87,0.42,0.87,0.89v3.89c0,0.51-0.41,0.89-0.87,0.89h-11.24v8.2h13.47c0.5,0,0.87,0.42,0.87,0.89v3.84
		c0,0.47-0.36,0.89-0.87,0.89h-18.53c-0.5,0-0.87-0.42-0.87-0.89V106.1z"/>
	<path d="M547,133.4l1.64-2.9c0.36-0.66,1.14-0.66,1.55-0.33c0.23,0.14,3.92,2.9,6.87,2.9c2.37,0,4.14-1.59,4.14-3.61
		c0-2.39-1.96-4.03-5.78-5.62c-4.28-1.78-8.56-4.59-8.56-10.12c0-4.17,3-8.99,10.24-8.99c4.64,0,8.19,2.44,9.1,3.14
		c0.46,0.28,0.59,1.08,0.27,1.55l-1.73,2.67c-0.36,0.56-1.05,0.94-1.59,0.56c-0.36-0.23-3.82-2.58-6.33-2.58
		c-2.59,0-4.01,1.78-4.01,3.28c0,2.2,1.68,3.7,5.37,5.24c4.42,1.83,9.51,4.54,9.51,10.58c0,4.82-4.05,9.27-10.47,9.27
		c-5.74,0-9.1-2.76-10.01-3.65C546.82,134.39,546.59,134.15,547,133.4z"/>
</g>
<g>
	<path d="M324.38,103.95l-0.58-1.26c-0.14-0.28,0-0.53,0.2-0.67l5.56-3.41c0.31-0.21,0.72-0.21,0.89,0.11l0.99,1.79
		c0.21,0.46,0.07,0.81-0.21,0.95l-5.97,2.7C324.75,104.37,324.55,104.27,324.38,103.95z"/>
</g>
</svg>
