<?xml version="1.0" encoding="utf-8"?>
<!-- Generator: Adobe Illustrator 24.0.1, SVG Export Plug-In . SVG Version: 6.00 Build 0)  -->
<svg version="1.1" id="Layer" xmlns="http://www.w3.org/2000/svg" xmlns:xlink="http://www.w3.org/1999/xlink" x="0px" y="0px"
	 viewBox="0 0 436.13 173.9" style="enable-background:new 0 0 436.13 173.9;" xml:space="preserve">
<style type="text/css">
	.st0{fill-rule:evenodd;clip-rule:evenodd;fill:#FFCB05;}
	.st1{fill-rule:evenodd;clip-rule:evenodd;fill:#0066B3;}
	.st2{fill-rule:evenodd;clip-rule:evenodd;fill:#ED1C24;}
	.st3{fill-rule:evenodd;clip-rule:evenodd;fill:#00AEEF;}
	.st4{fill-rule:evenodd;clip-rule:evenodd;fill:#F58220;}
	.st5{fill-rule:evenodd;clip-rule:evenodd;fill:#00A651;}
	.st6{fill-rule:evenodd;clip-rule:evenodd;fill:#7670B3;}
	.st7{fill-rule:evenodd;clip-rule:evenodd;fill:#C657A0;}
	.st8{fill-rule:evenodd;clip-rule:evenodd;fill:#A6CE39;}
</style>
<g>
	<circle class="st0" cx="4.08" cy="99.29" r="4.08"/>
	<path class="st0" d="M9.85,105.06c1.59-1.59,4.18-1.59,5.77,0c1.59,1.59,1.59,4.18,0,5.77c-1.59,1.59-4.18,1.59-5.77,0
		C8.26,109.24,8.26,106.65,9.85,105.06z"/>
	<path class="st0" d="M18.51,113.72c1.59-1.59,4.18-1.59,5.77,0c1.59,1.59,1.59,4.18,0,5.77c-1.59,1.59-4.18,1.59-5.77,0
		C16.91,117.89,16.91,115.31,18.51,113.72z"/>
	<path class="st1" d="M35.82,113.72c1.59-1.59,4.18-1.59,5.77,0c1.59,1.59,1.59,4.18,0,5.77c-1.59,1.59-4.18,1.59-5.77,0
		C34.22,117.89,34.22,115.31,35.82,113.72z"/>
	<path class="st2" d="M44.47,105.06c1.59-1.59,4.18-1.59,5.77,0c1.59,1.59,1.59,4.18,0,5.77c-1.59,1.59-4.18,1.59-5.77,0
		C42.88,109.24,42.88,106.65,44.47,105.06z"/>
	<path class="st3" d="M61.78,87.75c1.59-1.59,4.18-1.59,5.77,0c1.59,1.59,1.59,4.18,0,5.77c-1.59,1.59-4.18,1.59-5.77,0
		C60.19,91.93,60.19,89.34,61.78,87.75z"/>
	<path class="st4" d="M70.44,79.09c1.59-1.59,4.18-1.59,5.77,0c1.59,1.59,1.59,4.18,0,5.77c-1.59,1.59-4.18,1.59-5.77,0
		C68.85,83.27,68.85,80.69,70.44,79.09z"/>
	<path class="st5" d="M79.09,70.44c1.59-1.59,4.18-1.59,5.77,0c1.59,1.59,1.59,4.18,0,5.77c-1.59,1.59-4.18,1.59-5.77,0
		C77.5,74.62,77.5,72.03,79.09,70.44z"/>
	<path class="st6" d="M87.75,61.78c1.59-1.59,4.18-1.59,5.77,0c1.59,1.59,1.59,4.18,0,5.77c-1.59,1.59-4.18,1.59-5.77,0
		C86.16,65.96,86.16,63.38,87.75,61.78z"/>
	<path class="st3" d="M96.4,53.13c1.59-1.59,4.18-1.59,5.77,0c1.59,1.59,1.59,4.18,0,5.77c-1.59,1.59-4.18,1.59-5.77,0
		C94.81,57.3,94.81,54.72,96.4,53.13z"/>
	<circle class="st0" cx="107.95" cy="47.36" r="4.08"/>
	<path class="st3" d="M113.72,35.82c1.59-1.59,4.18-1.59,5.77,0c1.59,1.59,1.59,4.18,0,5.77c-1.59,1.59-4.18,1.59-5.77,0
		C112.12,39.99,112.12,37.41,113.72,35.82z"/>
	<path class="st7" d="M122.37,27.16c1.59-1.59,4.18-1.59,5.77,0c1.59,1.59,1.59,4.18,0,5.77c-1.59,1.59-4.18,1.59-5.77,0
		C120.78,31.34,120.78,28.75,122.37,27.16z"/>
	<path class="st4" d="M131.03,18.51c1.59-1.59,4.18-1.59,5.77,0c1.59,1.59,1.59,4.18,0,5.77c-1.59,1.59-4.18,1.59-5.77,0
		C129.43,22.68,129.43,20.1,131.03,18.51z"/>
	<path class="st8" d="M139.68,9.85c1.59-1.59,4.18-1.59,5.77,0c1.59,1.59,1.59,4.18,0,5.77c-1.59,1.59-4.18,1.59-5.77,0
		C138.09,14.03,138.09,11.44,139.68,9.85z"/>
	<path class="st4" d="M148.34,1.2c1.59-1.59,4.18-1.59,5.77,0c1.59,1.59,1.59,4.18,0,5.77c-1.59,1.59-4.18,1.59-5.77,0
		C146.74,5.37,146.74,2.79,148.34,1.2z"/>
	<path class="st1" d="M53.13,96.41c1.59-1.59,4.18-1.59,5.77,0c1.59,1.59,1.59,4.18,0,5.77c-1.59,1.59-4.18,1.59-5.77,0
		C51.53,100.58,51.53,98,53.13,96.41z"/>
	<path class="st2" d="M53.13,113.72c1.59-1.59,4.18-1.59,5.77,0c1.59,1.59,1.59,4.18,0,5.77c-1.59,1.59-4.18,1.59-5.77,0
		C51.53,117.89,51.53,115.31,53.13,113.72z"/>
	<path class="st2" d="M61.78,122.37c1.59-1.59,4.18-1.59,5.77,0c1.59,1.59,1.59,4.18,0,5.77c-1.59,1.59-4.18,1.59-5.77,0
		C60.19,126.55,60.19,123.96,61.78,122.37z"/>
	<path class="st2" d="M70.44,131.03c1.59-1.59,4.18-1.59,5.77,0c1.59,1.59,1.59,4.18,0,5.77c-1.59,1.59-4.18,1.59-5.77,0
		C68.84,135.2,68.84,132.62,70.44,131.03z"/>
	<circle class="st3" cx="73.32" cy="99.29" r="4.08"/>
	<circle class="st3" cx="81.98" cy="107.95" r="4.08"/>
	<path class="st3" d="M87.75,113.72c1.59-1.59,4.18-1.59,5.77,0c1.59,1.59,1.59,4.18,0,5.77c-1.59,1.59-4.18,1.59-5.77,0
		C86.16,117.89,86.16,115.31,87.75,113.72z"/>
	<path class="st3" d="M96.4,122.37c1.59-1.59,4.18-1.59,5.77,0c1.59,1.59,1.59,4.18,0,5.77c-1.59,1.59-4.18,1.59-5.77,0
		C94.81,126.55,94.81,123.96,96.4,122.37z"/>
	<path class="st4" d="M79.09,87.75c1.59-1.59,4.18-1.59,5.77,0c1.59,1.59,1.59,4.18,0,5.77c-1.59,1.59-4.18,1.59-5.77,0
		C77.5,91.93,77.5,89.34,79.09,87.75z"/>
	<path class="st4" d="M87.75,96.4c1.59-1.59,4.18-1.59,5.77,0c1.59,1.59,1.59,4.18,0,5.77c-1.59,1.59-4.18,1.59-5.77,0
		C86.16,100.58,86.16,98,87.75,96.4z"/>
	<path class="st4" d="M96.4,105.06c1.59-1.59,4.18-1.59,5.77,0c1.59,1.59,1.59,4.18,0,5.77c-1.59,1.59-4.18,1.59-5.77,0
		C94.81,109.24,94.81,106.65,96.4,105.06z"/>
	<circle class="st4" cx="107.95" cy="116.6" r="4.08"/>
	<path class="st4" d="M113.72,122.37c1.59-1.59,4.18-1.59,5.77,0c1.59,1.59,1.59,4.18,0,5.77c-1.59,1.59-4.18,1.59-5.77,0
		C112.12,126.55,112.12,123.96,113.72,122.37z"/>
	<path class="st4" d="M122.37,131.03c1.59-1.59,4.18-1.59,5.77,0c1.59,1.59,1.59,4.18,0,5.77c-1.59,1.59-4.18,1.59-5.77,0
		C120.78,135.2,120.78,132.62,122.37,131.03z"/>
	<path class="st4" d="M131.03,139.68c1.59-1.59,4.18-1.59,5.77,0c1.59,1.59,1.59,4.18,0,5.77c-1.59,1.59-4.18,1.59-5.77,0
		C129.43,143.86,129.43,141.28,131.03,139.68z"/>
	<path class="st4" d="M139.68,148.34c1.59-1.59,4.18-1.59,5.77,0c1.59,1.59,1.59,4.18,0,5.77c-1.59,1.59-4.18,1.59-5.77,0
		C138.09,152.51,138.09,149.93,139.68,148.34z"/>
	<path class="st5" d="M87.75,79.09c1.59-1.59,4.18-1.59,5.77,0c1.59,1.59,1.59,4.18,0,5.77c-1.59,1.59-4.18,1.59-5.77,0
		C86.16,83.27,86.16,80.69,87.75,79.09z"/>
	<path class="st6" d="M96.4,70.44c1.59-1.59,4.18-1.59,5.77,0c1.59,1.59,1.59,4.18,0,5.77c-1.59,1.59-4.18,1.59-5.77,0
		C94.81,74.62,94.81,72.03,96.4,70.44z"/>
	<path class="st6" d="M105.06,79.09c1.59-1.59,4.18-1.59,5.77,0c1.59,1.59,1.59,4.18,0,5.77c-1.59,1.59-4.18,1.59-5.77,0
		C103.47,83.27,103.47,80.69,105.06,79.09z"/>
	<path class="st6" d="M113.72,87.75c1.59-1.59,4.18-1.59,5.77,0c1.59,1.59,1.59,4.18,0,5.77c-1.59,1.59-4.18,1.59-5.77,0
		C112.12,91.93,112.12,89.34,113.72,87.75z"/>
	<circle class="st6" cx="125.26" cy="99.29" r="4.08"/>
	<path class="st6" d="M131.03,105.06c1.59-1.59,4.18-1.59,5.77,0c1.59,1.59,1.59,4.18,0,5.77c-1.59,1.59-4.18,1.59-5.77,0
		C129.43,109.24,129.43,106.65,131.03,105.06z"/>
	<circle class="st3" cx="107.95" cy="64.67" r="4.08"/>
	<path class="st3" d="M113.72,70.44c1.59-1.59,4.18-1.59,5.77,0c1.59,1.59,1.59,4.18,0,5.77c-1.59,1.59-4.18,1.59-5.77,0
		C112.12,74.62,112.12,72.03,113.72,70.44z"/>
	<path class="st3" d="M122.37,79.09c1.59-1.59,4.18-1.59,5.77,0c1.59,1.59,1.59,4.18,0,5.77c-1.59,1.59-4.18,1.59-5.77,0
		C120.78,83.27,120.78,80.69,122.37,79.09z"/>
	<path class="st3" d="M131.03,87.75c1.59-1.59,4.18-1.59,5.77,0c1.59,1.59,1.59,4.18,0,5.77c-1.59,1.59-4.18,1.59-5.77,0
		C129.43,91.93,129.43,89.34,131.03,87.75z"/>
	<circle class="st0" cx="116.6" cy="56.01" r="4.08"/>
	<circle class="st0" cx="125.26" cy="64.67" r="4.08"/>
	<circle class="st3" cx="125.26" cy="47.36" r="4.08"/>
	<path class="st3" d="M131.03,53.13c1.59-1.59,4.18-1.59,5.77,0c1.59,1.59,1.59,4.18,0,5.77c-1.59,1.59-4.18,1.59-5.77,0
		C129.43,57.3,129.43,54.72,131.03,53.13z"/>
	<path class="st3" d="M139.68,61.78c1.59-1.59,4.18-1.59,5.77,0c1.59,1.59,1.59,4.18,0,5.77c-1.59,1.59-4.18,1.59-5.77,0
		C138.09,65.96,138.09,63.38,139.68,61.78z"/>
	<path class="st3" d="M148.34,70.44c1.59-1.59,4.18-1.59,5.77,0c1.59,1.59,1.59,4.18,0,5.77c-1.59,1.59-4.18,1.59-5.77,0
		C146.74,74.62,146.74,72.03,148.34,70.44z"/>
	<path class="st7" d="M131.03,35.82c1.59-1.59,4.18-1.59,5.77,0c1.59,1.59,1.59,4.18,0,5.77c-1.59,1.59-4.18,1.59-5.77,0
		C129.43,39.99,129.43,37.41,131.03,35.82z"/>
	<path class="st7" d="M139.68,44.47c1.59-1.59,4.18-1.59,5.77,0c1.59,1.59,1.59,4.18,0,5.77c-1.59,1.59-4.18,1.59-5.77,0
		C138.09,48.65,138.09,46.07,139.68,44.47z"/>
	<path class="st7" d="M148.34,53.13c1.59-1.59,4.18-1.59,5.77,0c1.59,1.59,1.59,4.18,0,5.77c-1.59,1.59-4.18,1.59-5.77,0
		C146.74,57.3,146.74,54.72,148.34,53.13z"/>
	<circle class="st7" cx="159.88" cy="64.67" r="4.08"/>
	<path class="st7" d="M165.65,70.44c1.59-1.59,4.18-1.59,5.77,0c1.59,1.59,1.59,4.18,0,5.77c-1.59,1.59-4.18,1.59-5.77,0
		C164.06,74.62,164.06,72.03,165.65,70.44z"/>
	<path class="st7" d="M174.3,79.09c1.59-1.59,4.18-1.59,5.77,0c1.59,1.59,1.59,4.18,0,5.77c-1.59,1.59-4.18,1.59-5.77,0
		C172.71,83.27,172.71,80.69,174.3,79.09z"/>
	<path class="st7" d="M182.96,87.75c1.59-1.59,4.18-1.59,5.77,0c1.59,1.59,1.59,4.18,0,5.77c-1.59,1.59-4.18,1.59-5.77,0
		C181.37,91.93,181.37,89.34,182.96,87.75z"/>
	<path class="st4" d="M139.68,27.16c1.59-1.59,4.18-1.59,5.77,0c1.59,1.59,1.59,4.18,0,5.77c-1.59,1.59-4.18,1.59-5.77,0
		C138.09,31.34,138.09,28.75,139.68,27.16z"/>
	<path class="st4" d="M148.34,35.82c1.59-1.59,4.18-1.59,5.77,0c1.59,1.59,1.59,4.18,0,5.77c-1.59,1.59-4.18,1.59-5.77,0
		C146.74,39.99,146.74,37.41,148.34,35.82z"/>
	<circle class="st4" cx="159.88" cy="47.36" r="4.08"/>
	<circle class="st4" cx="168.53" cy="56.01" r="4.08"/>
	<circle class="st4" cx="177.19" cy="64.67" r="4.08"/>
	<path class="st4" d="M182.96,70.44c1.59-1.59,4.18-1.59,5.77,0c1.59,1.59,1.59,4.18,0,5.77c-1.59,1.59-4.18,1.59-5.77,0
		C181.37,74.62,181.37,72.03,182.96,70.44z"/>
	<path class="st4" d="M191.61,79.09c1.59-1.59,4.18-1.59,5.77,0c1.59,1.59,1.59,4.18,0,5.77c-1.59,1.59-4.18,1.59-5.77,0
		C190.02,83.27,190.02,80.69,191.61,79.09z"/>
	<path class="st4" d="M200.27,87.75c1.59-1.59,4.18-1.59,5.77,0c1.59,1.59,1.59,4.18,0,5.77c-1.59,1.59-4.18,1.59-5.77,0
		C198.68,91.93,198.68,89.34,200.27,87.75z"/>
	<path class="st8" d="M148.34,18.51c1.59-1.59,4.18-1.59,5.77,0c1.59,1.59,1.59,4.18,0,5.77c-1.59,1.59-4.18,1.59-5.77,0
		C146.74,22.68,146.74,20.1,148.34,18.51z"/>
	<path class="st8" d="M156.99,27.16c1.59-1.59,4.18-1.59,5.77,0c1.59,1.59,1.59,4.18,0,5.77c-1.59,1.59-4.18,1.59-5.77,0
		C155.4,31.34,155.4,28.75,156.99,27.16z"/>
	<path class="st8" d="M165.65,35.82c1.59-1.59,4.18-1.59,5.77,0c1.59,1.59,1.59,4.18,0,5.77c-1.59,1.59-4.18,1.59-5.77,0
		C164.06,39.99,164.06,37.41,165.65,35.82z"/>
	<circle class="st8" cx="177.19" cy="47.36" r="4.08"/>
	<path class="st8" d="M182.96,53.13c1.59-1.59,4.18-1.59,5.77,0c1.59,1.59,1.59,4.18,0,5.77c-1.59,1.59-4.18,1.59-5.77,0
		C181.37,57.3,181.37,54.72,182.96,53.13z"/>
	<path class="st8" d="M191.61,61.78c1.59-1.59,4.18-1.59,5.77,0c1.59,1.59,1.59,4.18,0,5.77c-1.59,1.59-4.18,1.59-5.77,0
		C190.02,65.96,190.02,63.38,191.61,61.78z"/>
	<path class="st4" d="M156.99,9.85c1.59-1.59,4.18-1.59,5.77,0c1.59,1.59,1.59,4.18,0,5.77c-1.59,1.59-4.18,1.59-5.77,0
		C155.4,14.03,155.4,11.44,156.99,9.85z"/>
	<circle class="st4" cx="168.53" cy="21.39" r="4.08"/>
	<path class="st4" d="M174.3,27.16c1.59-1.59,4.18-1.59,5.77,0c1.59,1.59,1.59,4.18,0,5.77c-1.59,1.59-4.18,1.59-5.77,0
		C172.71,31.34,172.71,28.75,174.3,27.16z"/>
	<path class="st4" d="M182.96,35.82c1.59-1.59,4.18-1.59,5.77,0c1.59,1.59,1.59,4.18,0,5.77c-1.59,1.59-4.18,1.59-5.77,0
		C181.37,39.99,181.37,37.41,182.96,35.82z"/>
	<path class="st4" d="M191.61,44.47c1.59-1.59,4.18-1.59,5.77,0c1.59,1.59,1.59,4.18,0,5.77c-1.59,1.59-4.18,1.59-5.77,0
		C190.02,48.65,190.02,46.07,191.61,44.47z"/>
	<circle class="st4" cx="203.16" cy="56.01" r="4.08"/>
	<circle class="st4" cx="211.81" cy="64.67" r="4.08"/>
	<path class="st4" d="M217.58,70.44c1.59-1.59,4.18-1.59,5.77,0c1.59,1.59,1.59,4.18,0,5.77c-1.59,1.59-4.18,1.59-5.77,0
		C215.99,74.62,215.99,72.03,217.58,70.44z"/>
</g>
<g>
	<path d="M229.6,153.53h-2.29c-0.24,0-0.43-0.21-0.43-0.45v-1.49c0-0.09,0.07-0.28,0.14-0.36l3.48-2.7h2.19
		c0.24,0,0.43,0.21,0.43,0.45v15.22c0,0.24-0.19,0.45-0.43,0.45h-2.64c-0.26,0-0.45-0.21-0.45-0.45V153.53z"/>
	<path d="M235.77,160.86v-2.51l8.31-9.94c0.07-0.07,0.14-0.14,0.36-0.14h1.71c0.24,0,0.45,0.19,0.45,0.45l0.02,9.72h1.88
		c0.26,0,0.45,0.19,0.45,0.43v1.97c0,0.24-0.19,0.45-0.45,0.45h-1.88l0.02,2.92c0,0.24-0.21,0.45-0.45,0.45h-2.55
		c-0.24,0-0.45-0.21-0.45-0.45v-2.89h-6.98C235.96,161.31,235.77,161.1,235.77,160.86z M243.29,158.37v-4.41l-3.79,4.41H243.29z"/>
	<path d="M260.54,148.5c0-0.24,0.19-0.45,0.43-0.45h5.33c4.6,0,8.36,3.72,8.36,8.28c0,4.6-3.76,8.32-8.36,8.32h-5.33
		c-0.24,0-0.43-0.21-0.43-0.45V148.5z M265.92,163.02c3.91,0,6.74-2.77,6.74-6.69c0-3.89-2.83-6.66-6.74-6.66h-3.57v13.35H265.92z"
		/>
	<path d="M278.5,148.5c0-0.24,0.19-0.45,0.45-0.45h9.38c0.26,0,0.45,0.21,0.45,0.45v0.69c0,0.24-0.19,0.45-0.45,0.45h-8v5.79h6.84
		c0.24,0,0.45,0.21,0.45,0.45v0.69c0,0.26-0.21,0.45-0.45,0.45h-6.84v6.05h8c0.26,0,0.45,0.21,0.45,0.45v0.69
		c0,0.24-0.19,0.45-0.45,0.45h-9.38c-0.26,0-0.45-0.21-0.45-0.45V148.5z"/>
	<path d="M300.1,148.15c0.05-0.19,0.24-0.33,0.43-0.33h0.38c0.17,0,0.36,0.12,0.41,0.26l4.72,13.07c0.05,0,0.07,0,0.12,0l4.64-13.07
		c0.05-0.14,0.24-0.26,0.41-0.26h0.38c0.19,0,0.38,0.14,0.43,0.33l3.07,15.93c0.07,0.33-0.07,0.57-0.43,0.57h-0.95
		c-0.19,0-0.38-0.17-0.43-0.33l-2.12-12.21c-0.02,0-0.07,0-0.1,0l-4.38,12.52c-0.05,0.14-0.26,0.26-0.41,0.26h-0.43
		c-0.14,0-0.36-0.12-0.41-0.26l-4.43-12.52c-0.02,0-0.07,0-0.1,0l-2.07,12.21c-0.02,0.17-0.24,0.33-0.43,0.33h-0.95
		c-0.36,0-0.5-0.24-0.43-0.57L300.1,148.15z"/>
	<path d="M316.63,164.04l7.24-15.96c0.07-0.14,0.19-0.26,0.41-0.26h0.24c0.21,0,0.33,0.12,0.4,0.26l7.19,15.96
		c0.14,0.31-0.05,0.62-0.4,0.62h-0.95c-0.21,0-0.36-0.14-0.41-0.26l-1.76-3.91h-8.46l-1.74,3.91c-0.05,0.12-0.19,0.26-0.4,0.26
		h-0.95C316.68,164.65,316.49,164.34,316.63,164.04z M327.95,159.01c-1.17-2.58-2.31-5.19-3.48-7.78h-0.19l-3.48,7.78H327.95z"/>
	<path d="M334.88,148.5c0-0.24,0.19-0.45,0.45-0.45h6.17c2.86,0,5.19,2.23,5.19,5.05c0,2.18-1.45,4.01-3.53,4.84l3.26,6.02
		c0.17,0.31,0,0.69-0.4,0.69h-1.21c-0.21,0-0.33-0.12-0.38-0.21l-3.17-6.28h-4.55v6.05c0,0.24-0.21,0.45-0.45,0.45h-0.93
		c-0.26,0-0.45-0.21-0.45-0.45V148.5z M341.38,156.59c1.83,0,3.43-1.52,3.43-3.46c0-1.8-1.6-3.34-3.43-3.34h-4.62v6.8H341.38z"/>
	<path d="M358.19,147.82c2.41,0,4.14,0.83,5.76,2.21c0.19,0.19,0.21,0.47,0.02,0.66l-0.64,0.64c-0.19,0.24-0.38,0.21-0.62-0.02
		c-1.24-1.07-2.93-1.78-4.55-1.78c-3.76,0-6.65,3.15-6.65,6.83c0,3.65,2.88,6.8,6.65,6.8c2.07,0,3.29-0.83,4.55-1.78
		c0.24-0.19,0.43-0.17,0.57-0.07l0.71,0.64c0.19,0.14,0.14,0.47-0.02,0.64c-1.62,1.56-3.67,2.3-5.79,2.3v1.02
		c1.45,0.19,2.5,1.07,2.5,2.44s-1.1,2.47-2.5,2.47c-0.71,0-1.41-0.36-1.81-0.83c-0.19-0.21-0.17-0.5,0-0.62l0.33-0.26
		c0.17-0.12,0.43-0.14,0.55,0c0.29,0.31,0.69,0.43,0.98,0.43c0.64,0,1.05-0.47,1.05-1.11c0-1.09-1.17-1.35-1.98-1.49
		c-0.36-0.07-0.41-0.36-0.41-0.47v-1.66c-4.14-0.59-7.31-4.1-7.31-8.42C349.6,151.63,353.43,147.82,358.19,147.82z"/>
	<path d="M375.11,147.82c4.76,0,8.58,3.82,8.58,8.56s-3.81,8.51-8.58,8.51s-8.55-3.77-8.55-8.51S370.34,147.82,375.11,147.82z
		 M375.11,163.23c3.79,0,6.91-3.08,6.91-6.85s-3.12-6.9-6.91-6.9s-6.88,3.13-6.88,6.9S371.32,163.23,375.11,163.23z"/>
</g>
<g>
	<path d="M286.3,84.57c0-0.16,0.15-0.31,0.31-0.31h0.65c0.16,0,0.31,0.15,0.31,0.31v10.71c0,0.16-0.15,0.31-0.31,0.31h-0.65
		c-0.16,0-0.31-0.15-0.31-0.31V84.57z"/>
	<path d="M290.4,84.39c0-0.16,0.15-0.29,0.31-0.29h0.41l7.33,9.09c0.02,0,0.02,0,0.03,0v-8.62c0-0.16,0.13-0.31,0.31-0.31h0.57
		c0.16,0,0.31,0.15,0.31,0.31v10.88c0,0.16-0.15,0.29-0.31,0.29h-0.29l-7.46-9.27h-0.02v8.8c0,0.16-0.13,0.31-0.31,0.31h-0.57
		c-0.16,0-0.31-0.15-0.31-0.31V84.39z"/>
	<path d="M304.1,85.34h-2.83c-0.18,0-0.31-0.15-0.31-0.31v-0.47c0-0.16,0.13-0.31,0.31-0.31h6.89c0.18,0,0.31,0.15,0.31,0.31v0.47
		c0,0.16-0.13,0.31-0.31,0.31h-2.83v9.93c0,0.16-0.15,0.31-0.31,0.31h-0.62c-0.16,0-0.31-0.15-0.31-0.31V85.34z"/>
	<path d="M309.77,84.57c0-0.16,0.13-0.31,0.31-0.31h6.4c0.18,0,0.31,0.15,0.31,0.31v0.47c0,0.16-0.13,0.31-0.31,0.31h-5.46v3.95
		h4.66c0.16,0,0.31,0.15,0.31,0.31v0.47c0,0.18-0.15,0.31-0.31,0.31h-4.66v4.12h5.46c0.18,0,0.31,0.15,0.31,0.31v0.47
		c0,0.16-0.13,0.31-0.31,0.31h-6.4c-0.18,0-0.31-0.15-0.31-0.31V84.57z"/>
	<path d="M318.9,84.57c0-0.16,0.13-0.31,0.31-0.31h4.21c1.95,0,3.54,1.52,3.54,3.45c0,1.49-0.99,2.73-2.41,3.3l2.23,4.11
		c0.11,0.21,0,0.47-0.28,0.47h-0.83c-0.15,0-0.23-0.08-0.26-0.15l-2.16-4.29h-3.1v4.12c0,0.16-0.15,0.31-0.31,0.31h-0.63
		c-0.18,0-0.31-0.15-0.31-0.31V84.57z M323.34,90.08c1.25,0,2.34-1.04,2.34-2.36c0-1.23-1.09-2.28-2.34-2.28h-3.15v4.64H323.34z"/>
	<path d="M329.16,84.39c0-0.16,0.15-0.29,0.31-0.29h0.41l7.33,9.09c0.02,0,0.02,0,0.03,0v-8.62c0-0.16,0.13-0.31,0.31-0.31h0.57
		c0.16,0,0.31,0.15,0.31,0.31v10.88c0,0.16-0.15,0.29-0.31,0.29h-0.29l-7.46-9.27h-0.02v8.8c0,0.16-0.13,0.31-0.31,0.31h-0.57
		c-0.16,0-0.31-0.15-0.31-0.31V84.39z"/>
	<path d="M339.69,95.16l4.94-10.88c0.05-0.1,0.13-0.18,0.28-0.18h0.16c0.15,0,0.23,0.08,0.28,0.18l4.91,10.88
		c0.1,0.21-0.03,0.42-0.28,0.42h-0.65c-0.15,0-0.24-0.1-0.28-0.18l-1.2-2.67h-5.77l-1.19,2.67c-0.03,0.08-0.13,0.18-0.28,0.18h-0.65
		C339.72,95.58,339.59,95.37,339.69,95.16z M347.41,91.73c-0.8-1.76-1.58-3.54-2.37-5.3h-0.13l-2.37,5.3H347.41z"/>
	<path d="M356.51,84.1c1.64,0,2.83,0.57,3.93,1.5c0.13,0.13,0.15,0.32,0.02,0.45l-0.44,0.44c-0.13,0.16-0.26,0.15-0.42-0.02
		c-0.85-0.73-2-1.21-3.1-1.21c-2.57,0-4.53,2.15-4.53,4.66c0,2.49,1.97,4.64,4.53,4.64c1.41,0,2.24-0.57,3.1-1.21
		c0.16-0.13,0.29-0.11,0.39-0.05l0.49,0.44c0.13,0.1,0.1,0.32-0.02,0.44c-1.11,1.07-2.5,1.57-3.95,1.57c-3.25,0-5.87-2.57-5.87-5.81
		C350.64,86.7,353.26,84.1,356.51,84.1z"/>
	<path d="M362.47,84.57c0-0.16,0.15-0.31,0.31-0.31h0.65c0.16,0,0.31,0.15,0.31,0.31v10.71c0,0.16-0.15,0.31-0.31,0.31h-0.65
		c-0.16,0-0.31-0.15-0.31-0.31V84.57z"/>
	<path d="M371.58,84.1c3.25,0,5.85,2.6,5.85,5.84c0,3.23-2.6,5.81-5.85,5.81s-5.83-2.57-5.83-5.81
		C365.74,86.7,368.33,84.1,371.58,84.1z M371.58,94.61c2.58,0,4.71-2.1,4.71-4.67c0-2.57-2.13-4.71-4.71-4.71s-4.7,2.13-4.7,4.71
		C366.88,92.51,368.99,94.61,371.58,94.61z"/>
	<path d="M379.43,84.39c0-0.16,0.15-0.29,0.31-0.29h0.41l7.33,9.09c0.02,0,0.02,0,0.03,0v-8.62c0-0.16,0.13-0.31,0.31-0.31h0.57
		c0.16,0,0.31,0.15,0.31,0.31v10.88c0,0.16-0.15,0.29-0.31,0.29h-0.29l-7.46-9.27h-0.02v8.8c0,0.16-0.13,0.31-0.31,0.31h-0.57
		c-0.16,0-0.31-0.15-0.31-0.31V84.39z"/>
	<path d="M389.96,95.16l4.94-10.88c0.05-0.1,0.13-0.18,0.28-0.18h0.16c0.15,0,0.23,0.08,0.28,0.18l4.91,10.88
		c0.1,0.21-0.03,0.42-0.28,0.42h-0.65c-0.15,0-0.24-0.1-0.28-0.18l-1.2-2.67h-5.77l-1.19,2.67c-0.03,0.08-0.13,0.18-0.28,0.18h-0.65
		C389.99,95.58,389.86,95.37,389.96,95.16z M397.68,91.73c-0.8-1.76-1.58-3.54-2.37-5.3h-0.13l-2.37,5.3H397.68z"/>
	<path d="M401.81,84.57c0-0.16,0.13-0.31,0.31-0.31h0.63c0.16,0,0.31,0.15,0.31,0.31v9.93h4.68c0.18,0,0.31,0.15,0.31,0.31v0.47
		c0,0.16-0.13,0.31-0.31,0.31h-5.62c-0.18,0-0.31-0.15-0.31-0.31V84.57z"/>
	<path d="M412.42,84.57c0-0.16,0.13-0.31,0.29-0.31h3.64c3.14,0,5.7,2.54,5.7,5.65c0,3.14-2.57,5.68-5.7,5.68h-3.64
		c-0.16,0-0.29-0.15-0.29-0.31V84.57z M416.09,94.47c2.67,0,4.6-1.89,4.6-4.56c0-2.65-1.93-4.54-4.6-4.54h-2.44v9.11H416.09z"/>
	<path d="M422.45,95.16l4.94-10.88c0.05-0.1,0.13-0.18,0.28-0.18h0.16c0.15,0,0.23,0.08,0.28,0.18l4.91,10.88
		c0.1,0.21-0.03,0.42-0.28,0.42h-0.65c-0.15,0-0.24-0.1-0.28-0.18l-1.2-2.67h-5.77l-1.19,2.67c-0.03,0.08-0.13,0.18-0.28,0.18h-0.65
		C422.48,95.58,422.35,95.37,422.45,95.16z M430.17,91.73c-0.8-1.76-1.58-3.54-2.37-5.3h-0.13l-2.37,5.3H430.17z"/>
</g>
<g>
	<path d="M230.71,73.45c0-0.32,0.25-0.61,0.57-0.61h7.23c6.06,0,11.03,5.07,11.03,11.28c0,6.27-4.96,11.34-11.03,11.34h-7.23
		c-0.31,0-0.57-0.29-0.57-0.61V73.45z M238.06,92.38c4.62,0,7.98-3.49,7.98-8.27c0-4.75-3.36-8.21-7.98-8.21h-4.15v16.48H238.06z"/>
	<path d="M253.58,73.45c0-0.32,0.28-0.61,0.6-0.61h2.07c0.31,0,0.6,0.29,0.6,0.61v21.39c0,0.32-0.28,0.61-0.6,0.61h-2.07
		c-0.31,0-0.6-0.29-0.6-0.61V73.45z"/>
	<path d="M259.51,94.61l9.64-21.75c0.09-0.19,0.38-0.36,0.53-0.36h0.31c0.16,0,0.44,0.16,0.53,0.36l9.58,21.75
		c0.19,0.42-0.06,0.84-0.53,0.84h-1.98c-0.38,0-0.6-0.19-0.72-0.48l-1.95-4.43h-10.27c-0.63,1.49-1.29,2.94-1.92,4.43
		c-0.09,0.23-0.35,0.48-0.72,0.48h-1.98C259.58,95.45,259.32,95.03,259.51,94.61z M273.75,87.76l-3.86-8.86h-0.16l-3.83,8.86H273.75
		z"/>
</g>
<g>
	<path d="M152.36,105.45c0.05-0.38,0.32-0.7,0.82-0.7h0.73c0.36,0,0.64,0.19,0.77,0.47l10.01,22.1c0.09,0,0.09,0,0.14,0l10.01-22.1
		c0.14-0.28,0.36-0.47,0.77-0.47h0.73c0.5,0,0.77,0.33,0.82,0.7l5.37,31.47c0.14,0.66-0.23,1.08-0.82,1.08h-4.14
		c-0.41,0-0.77-0.38-0.86-0.7l-2.69-17.75c-0.05,0-0.14,0-0.14,0l-7.97,18.4c-0.09,0.28-0.36,0.52-0.77,0.52h-0.82
		c-0.41,0-0.64-0.23-0.77-0.52l-8.06-18.4c0,0-0.09,0-0.14,0l-2.64,17.75c-0.05,0.33-0.41,0.7-0.82,0.7h-4.1
		c-0.59,0-0.96-0.42-0.86-1.08L152.36,105.45z"/>
	<path d="M185.32,136.77l14.16-31.52c0.14-0.28,0.36-0.52,0.77-0.52h0.46c0.46,0,0.64,0.23,0.77,0.52l14.02,31.52
		c0.27,0.61-0.09,1.22-0.77,1.22h-3.96c-0.68,0-1-0.28-1.32-0.94l-2.23-5.06H193.6l-2.23,5.06c-0.18,0.47-0.59,0.94-1.32,0.94h-3.96
		C185.41,137.99,185.05,137.38,185.32,136.77z M204.98,126.8l-4.55-10.3h-0.14l-4.46,10.3H204.98z"/>
	<path d="M222.92,110.83h-6.96c-0.5,0-0.86-0.42-0.86-0.89v-3.84c0-0.47,0.36-0.89,0.86-0.89h19.89c0.5,0,0.87,0.42,0.87,0.89v3.84
		c0,0.47-0.36,0.89-0.87,0.89h-6.96v26.27c0,0.47-0.41,0.89-0.86,0.89h-4.23c-0.46,0-0.87-0.42-0.87-0.89V110.83z"/>
	<path d="M242.13,106.1c0-0.47,0.36-0.89,0.87-0.89h18.53c0.5,0,0.87,0.42,0.87,0.89v3.84c0,0.47-0.36,0.89-0.87,0.89h-13.47v7.68
		h11.24c0.46,0,0.87,0.42,0.87,0.89v3.89c0,0.51-0.41,0.89-0.87,0.89h-11.24v8.2h13.47c0.5,0,0.87,0.42,0.87,0.89v3.84
		c0,0.47-0.36,0.89-0.87,0.89h-18.53c-0.5,0-0.87-0.42-0.87-0.89V106.1z"/>
	<path d="M272.9,105.45c0.05-0.38,0.32-0.7,0.82-0.7h0.73c0.36,0,0.64,0.19,0.77,0.47l10.01,22.1c0.09,0,0.09,0,0.14,0l10.01-22.1
		c0.14-0.28,0.36-0.47,0.77-0.47h0.73c0.5,0,0.77,0.33,0.82,0.7l5.37,31.47c0.14,0.66-0.23,1.08-0.82,1.08h-4.14
		c-0.41,0-0.77-0.38-0.87-0.7l-2.69-17.75c-0.05,0-0.14,0-0.14,0l-7.96,18.4c-0.09,0.28-0.36,0.52-0.77,0.52h-0.82
		c-0.41,0-0.64-0.23-0.77-0.52l-8.06-18.4c0,0-0.09,0-0.14,0l-2.64,17.75c-0.05,0.33-0.41,0.7-0.82,0.7h-4.1
		c-0.59,0-0.96-0.42-0.87-1.08L272.9,105.45z"/>
	<path d="M305.86,136.77l14.16-31.52c0.14-0.28,0.36-0.52,0.77-0.52h0.46c0.46,0,0.64,0.23,0.77,0.52l14.02,31.52
		c0.27,0.61-0.09,1.22-0.77,1.22h-3.96c-0.68,0-1-0.28-1.32-0.94l-2.23-5.06h-13.61l-2.23,5.06c-0.18,0.47-0.59,0.94-1.32,0.94
		h-3.96C305.95,137.99,305.58,137.38,305.86,136.77z M325.52,126.8l-4.55-10.3h-0.14l-4.46,10.3H325.52z"/>
	<path d="M343.46,110.83h-6.96c-0.5,0-0.87-0.42-0.87-0.89v-3.84c0-0.47,0.36-0.89,0.87-0.89h19.89c0.5,0,0.86,0.42,0.86,0.89v3.84
		c0,0.47-0.36,0.89-0.86,0.89h-6.96v26.27c0,0.47-0.41,0.89-0.87,0.89h-4.23c-0.46,0-0.86-0.42-0.86-0.89V110.83z"/>
	<path d="M362.66,106.1c0-0.47,0.41-0.89,0.87-0.89h4.23c0.46,0,0.86,0.42,0.86,0.89v31c0,0.47-0.41,0.89-0.86,0.89h-4.23
		c-0.46,0-0.87-0.42-0.87-0.89V106.1z"/>
	<path d="M391.7,104.74c4.6,0,7.92,1.5,11.02,4.36c0.41,0.38,0.41,0.94,0.04,1.31l-2.78,2.95c-0.32,0.37-0.77,0.37-1.14,0
		c-1.91-1.73-4.46-2.76-7.01-2.76c-5.83,0-10.15,5.01-10.15,10.91c0,5.85,4.37,10.82,10.2,10.82c2.73,0,5.05-1.08,6.96-2.67
		c0.36-0.33,0.87-0.28,1.14,0l2.82,3c0.36,0.33,0.27,0.94-0.05,1.26c-3.09,3.09-7.01,4.54-11.06,4.54c-9.1,0-16.43-7.45-16.43-16.81
		C375.27,112.28,382.6,104.74,391.7,104.74z"/>
	<path d="M405.27,136.77l14.16-31.52c0.14-0.28,0.36-0.52,0.77-0.52h0.46c0.46,0,0.64,0.23,0.77,0.52l14.02,31.52
		c0.27,0.61-0.09,1.22-0.77,1.22h-3.96c-0.68,0-1-0.28-1.32-0.94l-2.23-5.06h-13.61l-2.23,5.06c-0.18,0.47-0.59,0.94-1.32,0.94
		h-3.96C405.36,137.99,405,137.38,405.27,136.77z M424.93,126.8l-4.55-10.3h-0.14l-4.46,10.3H424.93z"/>
</g>
<g>
	<path d="M317.64,104.62l-0.58-1.26c-0.14-0.28,0-0.53,0.21-0.67l5.56-3.41c0.31-0.21,0.72-0.21,0.89,0.11l0.99,1.79
		c0.21,0.46,0.07,0.81-0.2,0.95l-5.97,2.7C318.02,105.04,317.81,104.93,317.64,104.62z"/>
</g>
</svg>
