<?xml version="1.0" encoding="utf-8"?>
<!-- Generator: Adobe Illustrator 24.0.3, SVG Export Plug-In . SVG Version: 6.00 Build 0)  -->
<svg version="1.1" id="Layer" xmlns="http://www.w3.org/2000/svg" xmlns:xlink="http://www.w3.org/1999/xlink" x="0px" y="0px"
	 viewBox="0 0 517.58 173.9" style="enable-background:new 0 0 517.58 173.9;" xml:space="preserve">
<style type="text/css">
	.st0{fill-rule:evenodd;clip-rule:evenodd;fill:#FFCB05;}
	.st1{fill-rule:evenodd;clip-rule:evenodd;fill:#0066B3;}
	.st2{fill-rule:evenodd;clip-rule:evenodd;fill:#ED1C24;}
	.st3{fill-rule:evenodd;clip-rule:evenodd;fill:#00AEEF;}
	.st4{fill-rule:evenodd;clip-rule:evenodd;fill:#F58220;}
	.st5{fill-rule:evenodd;clip-rule:evenodd;fill:#00A651;}
	.st6{fill-rule:evenodd;clip-rule:evenodd;fill:#7670B3;}
	.st7{fill-rule:evenodd;clip-rule:evenodd;fill:#C657A0;}
	.st8{fill-rule:evenodd;clip-rule:evenodd;fill:#A6CE39;}
</style>
<g>
	<g>
		<circle class="st0" cx="4.08" cy="99.29" r="4.08"/>
		<path class="st0" d="M9.85,105.06c1.59-1.59,4.18-1.59,5.77,0c1.59,1.59,1.59,4.18,0,5.77c-1.59,1.59-4.18,1.59-5.77,0
			C8.26,109.24,8.26,106.65,9.85,105.06z"/>
		<path class="st0" d="M18.51,113.72c1.59-1.59,4.18-1.59,5.77,0c1.59,1.59,1.59,4.18,0,5.77c-1.59,1.59-4.18,1.59-5.77,0
			C16.91,117.89,16.91,115.31,18.51,113.72z"/>
		<path class="st1" d="M35.82,113.72c1.59-1.59,4.18-1.59,5.77,0c1.59,1.59,1.59,4.18,0,5.77c-1.59,1.59-4.18,1.59-5.77,0
			C34.22,117.89,34.22,115.31,35.82,113.72z"/>
		<path class="st2" d="M44.47,105.06c1.59-1.59,4.18-1.59,5.77,0c1.59,1.59,1.59,4.18,0,5.77c-1.59,1.59-4.18,1.59-5.77,0
			C42.88,109.24,42.88,106.65,44.47,105.06z"/>
		<path class="st3" d="M61.78,87.75c1.59-1.59,4.18-1.59,5.77,0c1.59,1.59,1.59,4.18,0,5.77c-1.59,1.59-4.18,1.59-5.77,0
			C60.19,91.93,60.19,89.34,61.78,87.75z"/>
		<path class="st4" d="M70.44,79.09c1.59-1.59,4.18-1.59,5.77,0c1.59,1.59,1.59,4.18,0,5.77c-1.59,1.59-4.18,1.59-5.77,0
			C68.85,83.27,68.85,80.69,70.44,79.09z"/>
		<path class="st5" d="M79.09,70.44c1.59-1.59,4.18-1.59,5.77,0c1.59,1.59,1.59,4.18,0,5.77c-1.59,1.59-4.18,1.59-5.77,0
			C77.5,74.62,77.5,72.03,79.09,70.44z"/>
		<path class="st6" d="M87.75,61.78c1.59-1.59,4.18-1.59,5.77,0c1.59,1.59,1.59,4.18,0,5.77c-1.59,1.59-4.18,1.59-5.77,0
			C86.16,65.96,86.16,63.38,87.75,61.78z"/>
		<path class="st3" d="M96.4,53.13c1.59-1.59,4.18-1.59,5.77,0c1.59,1.59,1.59,4.18,0,5.77c-1.59,1.59-4.18,1.59-5.77,0
			C94.81,57.3,94.81,54.72,96.4,53.13z"/>
		<circle class="st0" cx="107.95" cy="47.36" r="4.08"/>
		<path class="st3" d="M113.72,35.82c1.59-1.59,4.18-1.59,5.77,0c1.59,1.59,1.59,4.18,0,5.77c-1.59,1.59-4.18,1.59-5.77,0
			C112.12,39.99,112.12,37.41,113.72,35.82z"/>
		<path class="st7" d="M122.37,27.16c1.59-1.59,4.18-1.59,5.77,0c1.59,1.59,1.59,4.18,0,5.77c-1.59,1.59-4.18,1.59-5.77,0
			C120.78,31.34,120.78,28.75,122.37,27.16z"/>
		<path class="st4" d="M131.03,18.51c1.59-1.59,4.18-1.59,5.77,0c1.59,1.59,1.59,4.18,0,5.77c-1.59,1.59-4.18,1.59-5.77,0
			C129.43,22.68,129.43,20.1,131.03,18.51z"/>
		<path class="st8" d="M139.68,9.85c1.59-1.59,4.18-1.59,5.77,0c1.59,1.59,1.59,4.18,0,5.77c-1.59,1.59-4.18,1.59-5.77,0
			C138.09,14.03,138.09,11.44,139.68,9.85z"/>
		<path class="st4" d="M148.34,1.2c1.59-1.59,4.18-1.59,5.77,0c1.59,1.59,1.59,4.18,0,5.77c-1.59,1.59-4.18,1.59-5.77,0
			C146.74,5.37,146.74,2.79,148.34,1.2z"/>
		<path class="st1" d="M53.13,96.41c1.59-1.59,4.18-1.59,5.77,0c1.59,1.59,1.59,4.18,0,5.77c-1.59,1.59-4.18,1.59-5.77,0
			C51.53,100.58,51.53,98,53.13,96.41z"/>
		<path class="st2" d="M53.13,113.72c1.59-1.59,4.18-1.59,5.77,0c1.59,1.59,1.59,4.18,0,5.77c-1.59,1.59-4.18,1.59-5.77,0
			C51.53,117.89,51.53,115.31,53.13,113.72z"/>
		<path class="st2" d="M61.78,122.37c1.59-1.59,4.18-1.59,5.77,0c1.59,1.59,1.59,4.18,0,5.77c-1.59,1.59-4.18,1.59-5.77,0
			C60.19,126.55,60.19,123.96,61.78,122.37z"/>
		<path class="st2" d="M70.44,131.03c1.59-1.59,4.18-1.59,5.77,0c1.59,1.59,1.59,4.18,0,5.77c-1.59,1.59-4.18,1.59-5.77,0
			C68.84,135.2,68.84,132.62,70.44,131.03z"/>
		<circle class="st3" cx="73.32" cy="99.29" r="4.08"/>
		<circle class="st3" cx="81.98" cy="107.95" r="4.08"/>
		<path class="st3" d="M87.75,113.72c1.59-1.59,4.18-1.59,5.77,0c1.59,1.59,1.59,4.18,0,5.77c-1.59,1.59-4.18,1.59-5.77,0
			C86.16,117.89,86.16,115.31,87.75,113.72z"/>
		<path class="st3" d="M96.4,122.37c1.59-1.59,4.18-1.59,5.77,0c1.59,1.59,1.59,4.18,0,5.77c-1.59,1.59-4.18,1.59-5.77,0
			C94.81,126.55,94.81,123.96,96.4,122.37z"/>
		<path class="st4" d="M79.09,87.75c1.59-1.59,4.18-1.59,5.77,0c1.59,1.59,1.59,4.18,0,5.77c-1.59,1.59-4.18,1.59-5.77,0
			C77.5,91.93,77.5,89.34,79.09,87.75z"/>
		<path class="st4" d="M87.75,96.4c1.59-1.59,4.18-1.59,5.77,0c1.59,1.59,1.59,4.18,0,5.77c-1.59,1.59-4.18,1.59-5.77,0
			C86.16,100.58,86.16,98,87.75,96.4z"/>
		<path class="st4" d="M96.4,105.06c1.59-1.59,4.18-1.59,5.77,0c1.59,1.59,1.59,4.18,0,5.77c-1.59,1.59-4.18,1.59-5.77,0
			C94.81,109.24,94.81,106.65,96.4,105.06z"/>
		<circle class="st4" cx="107.95" cy="116.6" r="4.08"/>
		<path class="st4" d="M113.72,122.37c1.59-1.59,4.18-1.59,5.77,0c1.59,1.59,1.59,4.18,0,5.77c-1.59,1.59-4.18,1.59-5.77,0
			C112.12,126.55,112.12,123.96,113.72,122.37z"/>
		<path class="st4" d="M122.37,131.03c1.59-1.59,4.18-1.59,5.77,0c1.59,1.59,1.59,4.18,0,5.77c-1.59,1.59-4.18,1.59-5.77,0
			C120.78,135.2,120.78,132.62,122.37,131.03z"/>
		<path class="st4" d="M131.03,139.68c1.59-1.59,4.18-1.59,5.77,0c1.59,1.59,1.59,4.18,0,5.77c-1.59,1.59-4.18,1.59-5.77,0
			C129.43,143.86,129.43,141.28,131.03,139.68z"/>
		<path class="st4" d="M139.68,148.34c1.59-1.59,4.18-1.59,5.77,0c1.59,1.59,1.59,4.18,0,5.77c-1.59,1.59-4.18,1.59-5.77,0
			C138.09,152.51,138.09,149.93,139.68,148.34z"/>
		<path class="st5" d="M87.75,79.09c1.59-1.59,4.18-1.59,5.77,0c1.59,1.59,1.59,4.18,0,5.77c-1.59,1.59-4.18,1.59-5.77,0
			C86.16,83.27,86.16,80.69,87.75,79.09z"/>
		<path class="st6" d="M96.4,70.44c1.59-1.59,4.18-1.59,5.77,0c1.59,1.59,1.59,4.18,0,5.77c-1.59,1.59-4.18,1.59-5.77,0
			C94.81,74.62,94.81,72.03,96.4,70.44z"/>
		<path class="st6" d="M105.06,79.09c1.59-1.59,4.18-1.59,5.77,0c1.59,1.59,1.59,4.18,0,5.77c-1.59,1.59-4.18,1.59-5.77,0
			C103.47,83.27,103.47,80.69,105.06,79.09z"/>
		<path class="st6" d="M113.72,87.75c1.59-1.59,4.18-1.59,5.77,0c1.59,1.59,1.59,4.18,0,5.77c-1.59,1.59-4.18,1.59-5.77,0
			C112.12,91.93,112.12,89.34,113.72,87.75z"/>
		<circle class="st6" cx="125.26" cy="99.29" r="4.08"/>
		<path class="st6" d="M131.03,105.06c1.59-1.59,4.18-1.59,5.77,0c1.59,1.59,1.59,4.18,0,5.77c-1.59,1.59-4.18,1.59-5.77,0
			C129.43,109.24,129.43,106.65,131.03,105.06z"/>
		<circle class="st3" cx="107.95" cy="64.67" r="4.08"/>
		<path class="st3" d="M113.72,70.44c1.59-1.59,4.18-1.59,5.77,0c1.59,1.59,1.59,4.18,0,5.77c-1.59,1.59-4.18,1.59-5.77,0
			C112.12,74.62,112.12,72.03,113.72,70.44z"/>
		<path class="st3" d="M122.37,79.09c1.59-1.59,4.18-1.59,5.77,0c1.59,1.59,1.59,4.18,0,5.77c-1.59,1.59-4.18,1.59-5.77,0
			C120.78,83.27,120.78,80.69,122.37,79.09z"/>
		<path class="st3" d="M131.03,87.75c1.59-1.59,4.18-1.59,5.77,0c1.59,1.59,1.59,4.18,0,5.77c-1.59,1.59-4.18,1.59-5.77,0
			C129.43,91.93,129.43,89.34,131.03,87.75z"/>
		<circle class="st0" cx="116.6" cy="56.01" r="4.08"/>
		<circle class="st0" cx="125.26" cy="64.67" r="4.08"/>
		<circle class="st3" cx="125.26" cy="47.36" r="4.08"/>
		<path class="st3" d="M131.03,53.13c1.59-1.59,4.18-1.59,5.77,0c1.59,1.59,1.59,4.18,0,5.77c-1.59,1.59-4.18,1.59-5.77,0
			C129.43,57.3,129.43,54.72,131.03,53.13z"/>
		<path class="st3" d="M139.68,61.78c1.59-1.59,4.18-1.59,5.77,0c1.59,1.59,1.59,4.18,0,5.77c-1.59,1.59-4.18,1.59-5.77,0
			C138.09,65.96,138.09,63.38,139.68,61.78z"/>
		<path class="st3" d="M148.34,70.44c1.59-1.59,4.18-1.59,5.77,0c1.59,1.59,1.59,4.18,0,5.77c-1.59,1.59-4.18,1.59-5.77,0
			C146.74,74.62,146.74,72.03,148.34,70.44z"/>
		<path class="st7" d="M131.03,35.82c1.59-1.59,4.18-1.59,5.77,0c1.59,1.59,1.59,4.18,0,5.77c-1.59,1.59-4.18,1.59-5.77,0
			C129.43,39.99,129.43,37.41,131.03,35.82z"/>
		<path class="st7" d="M139.68,44.47c1.59-1.59,4.18-1.59,5.77,0c1.59,1.59,1.59,4.18,0,5.77c-1.59,1.59-4.18,1.59-5.77,0
			C138.09,48.65,138.09,46.07,139.68,44.47z"/>
		<path class="st7" d="M148.34,53.13c1.59-1.59,4.18-1.59,5.77,0c1.59,1.59,1.59,4.18,0,5.77c-1.59,1.59-4.18,1.59-5.77,0
			C146.74,57.3,146.74,54.72,148.34,53.13z"/>
		<circle class="st7" cx="159.88" cy="64.67" r="4.08"/>
		<path class="st7" d="M165.65,70.44c1.59-1.59,4.18-1.59,5.77,0c1.59,1.59,1.59,4.18,0,5.77c-1.59,1.59-4.18,1.59-5.77,0
			C164.06,74.62,164.06,72.03,165.65,70.44z"/>
		<path class="st7" d="M174.3,79.09c1.59-1.59,4.18-1.59,5.77,0c1.59,1.59,1.59,4.18,0,5.77c-1.59,1.59-4.18,1.59-5.77,0
			C172.71,83.27,172.71,80.69,174.3,79.09z"/>
		<path class="st7" d="M182.96,87.75c1.59-1.59,4.18-1.59,5.77,0c1.59,1.59,1.59,4.18,0,5.77c-1.59,1.59-4.18,1.59-5.77,0
			C181.37,91.93,181.37,89.34,182.96,87.75z"/>
		<path class="st4" d="M139.68,27.16c1.59-1.59,4.18-1.59,5.77,0c1.59,1.59,1.59,4.18,0,5.77c-1.59,1.59-4.18,1.59-5.77,0
			C138.09,31.34,138.09,28.75,139.68,27.16z"/>
		<path class="st4" d="M148.34,35.82c1.59-1.59,4.18-1.59,5.77,0c1.59,1.59,1.59,4.18,0,5.77c-1.59,1.59-4.18,1.59-5.77,0
			C146.74,39.99,146.74,37.41,148.34,35.82z"/>
		<circle class="st4" cx="159.88" cy="47.36" r="4.08"/>
		<circle class="st4" cx="168.53" cy="56.01" r="4.08"/>
		<circle class="st4" cx="177.19" cy="64.67" r="4.08"/>
		<path class="st4" d="M182.96,70.44c1.59-1.59,4.18-1.59,5.77,0c1.59,1.59,1.59,4.18,0,5.77c-1.59,1.59-4.18,1.59-5.77,0
			C181.37,74.62,181.37,72.03,182.96,70.44z"/>
		<path class="st4" d="M191.61,79.09c1.59-1.59,4.18-1.59,5.77,0c1.59,1.59,1.59,4.18,0,5.77c-1.59,1.59-4.18,1.59-5.77,0
			C190.02,83.27,190.02,80.69,191.61,79.09z"/>
		<path class="st4" d="M200.27,87.75c1.59-1.59,4.18-1.59,5.77,0c1.59,1.59,1.59,4.18,0,5.77c-1.59,1.59-4.18,1.59-5.77,0
			C198.68,91.93,198.68,89.34,200.27,87.75z"/>
		<path class="st8" d="M148.34,18.51c1.59-1.59,4.18-1.59,5.77,0c1.59,1.59,1.59,4.18,0,5.77c-1.59,1.59-4.18,1.59-5.77,0
			C146.74,22.68,146.74,20.1,148.34,18.51z"/>
		<path class="st8" d="M156.99,27.16c1.59-1.59,4.18-1.59,5.77,0c1.59,1.59,1.59,4.18,0,5.77c-1.59,1.59-4.18,1.59-5.77,0
			C155.4,31.34,155.4,28.75,156.99,27.16z"/>
		<path class="st8" d="M165.65,35.82c1.59-1.59,4.18-1.59,5.77,0c1.59,1.59,1.59,4.18,0,5.77c-1.59,1.59-4.18,1.59-5.77,0
			C164.06,39.99,164.06,37.41,165.65,35.82z"/>
		<circle class="st8" cx="177.19" cy="47.36" r="4.08"/>
		<path class="st8" d="M182.96,53.13c1.59-1.59,4.18-1.59,5.77,0c1.59,1.59,1.59,4.18,0,5.77c-1.59,1.59-4.18,1.59-5.77,0
			C181.37,57.3,181.37,54.72,182.96,53.13z"/>
		<path class="st8" d="M191.61,61.78c1.59-1.59,4.18-1.59,5.77,0c1.59,1.59,1.59,4.18,0,5.77c-1.59,1.59-4.18,1.59-5.77,0
			C190.02,65.96,190.02,63.38,191.61,61.78z"/>
		<path class="st4" d="M156.99,9.85c1.59-1.59,4.18-1.59,5.77,0c1.59,1.59,1.59,4.18,0,5.77c-1.59,1.59-4.18,1.59-5.77,0
			C155.4,14.03,155.4,11.44,156.99,9.85z"/>
		<circle class="st4" cx="168.53" cy="21.39" r="4.08"/>
		<path class="st4" d="M174.3,27.16c1.59-1.59,4.18-1.59,5.77,0c1.59,1.59,1.59,4.18,0,5.77c-1.59,1.59-4.18,1.59-5.77,0
			C172.71,31.34,172.71,28.75,174.3,27.16z"/>
		<path class="st4" d="M182.96,35.82c1.59-1.59,4.18-1.59,5.77,0c1.59,1.59,1.59,4.18,0,5.77c-1.59,1.59-4.18,1.59-5.77,0
			C181.37,39.99,181.37,37.41,182.96,35.82z"/>
		<path class="st4" d="M191.61,44.47c1.59-1.59,4.18-1.59,5.77,0c1.59,1.59,1.59,4.18,0,5.77c-1.59,1.59-4.18,1.59-5.77,0
			C190.02,48.65,190.02,46.07,191.61,44.47z"/>
		<circle class="st4" cx="203.16" cy="56.01" r="4.08"/>
		<circle class="st4" cx="211.81" cy="64.67" r="4.08"/>
		<path class="st4" d="M217.58,70.44c1.59-1.59,4.18-1.59,5.77,0c1.59,1.59,1.59,4.18,0,5.77c-1.59,1.59-4.18,1.59-5.77,0
			C215.99,74.62,215.99,72.03,217.58,70.44z"/>
	</g>
</g>
<g>
	<path d="M229.6,153.53h-2.29c-0.24,0-0.43-0.21-0.43-0.45v-1.49c0-0.09,0.07-0.28,0.14-0.36l3.48-2.7h2.19
		c0.24,0,0.43,0.21,0.43,0.45v15.22c0,0.24-0.19,0.45-0.43,0.45h-2.64c-0.26,0-0.45-0.21-0.45-0.45V153.53z"/>
	<path d="M235.77,160.86v-2.51l8.31-9.94c0.07-0.07,0.14-0.14,0.36-0.14h1.71c0.24,0,0.45,0.19,0.45,0.45l0.02,9.72h1.88
		c0.26,0,0.45,0.19,0.45,0.43v1.97c0,0.24-0.19,0.45-0.45,0.45h-1.88l0.02,2.92c0,0.24-0.21,0.45-0.45,0.45h-2.55
		c-0.24,0-0.45-0.21-0.45-0.45v-2.89h-6.98C235.96,161.31,235.77,161.1,235.77,160.86z M243.29,158.37v-4.41l-3.79,4.41H243.29z"/>
	<path d="M257.87,148.15c0.05-0.19,0.24-0.33,0.43-0.33h0.38c0.17,0,0.36,0.12,0.41,0.26l4.72,13.07c0.05,0,0.07,0,0.12,0
		l4.64-13.07c0.05-0.14,0.24-0.26,0.41-0.26h0.38c0.19,0,0.38,0.14,0.43,0.33l3.07,15.93c0.07,0.33-0.07,0.57-0.43,0.57h-0.95
		c-0.19,0-0.38-0.17-0.43-0.33l-2.12-12.21c-0.02,0-0.07,0-0.1,0l-4.38,12.52c-0.05,0.14-0.26,0.26-0.41,0.26h-0.43
		c-0.14,0-0.36-0.12-0.41-0.26l-4.43-12.52c-0.02,0-0.07,0-0.1,0l-2.07,12.21c-0.02,0.17-0.24,0.33-0.43,0.33h-0.95
		c-0.36,0-0.5-0.24-0.43-0.57L257.87,148.15z"/>
	<path d="M273.52,164.04l7.24-15.96c0.07-0.14,0.19-0.26,0.41-0.26h0.24c0.21,0,0.33,0.12,0.4,0.26l7.19,15.96
		c0.14,0.31-0.05,0.62-0.4,0.62h-0.95c-0.21,0-0.36-0.14-0.41-0.26l-1.76-3.91h-8.46l-1.74,3.91c-0.05,0.12-0.19,0.26-0.4,0.26
		h-0.95C273.57,164.65,273.38,164.34,273.52,164.04z M284.83,159.01c-1.17-2.58-2.31-5.19-3.48-7.78h-0.19l-3.48,7.78H284.83z"/>
	<path d="M290.88,148.5c0-0.24,0.19-0.45,0.45-0.45h6.17c2.86,0,5.19,2.23,5.19,5.05c0,2.18-1.45,4.01-3.53,4.84l3.26,6.02
		c0.17,0.31,0,0.69-0.4,0.69h-1.21c-0.21,0-0.33-0.12-0.38-0.21l-3.17-6.28h-4.55v6.05c0,0.24-0.21,0.45-0.45,0.45h-0.93
		c-0.26,0-0.45-0.21-0.45-0.45V148.5z M297.39,156.59c1.83,0,3.43-1.52,3.43-3.46c0-1.8-1.6-3.34-3.43-3.34h-4.62v6.8H297.39z"/>
	<path d="M308.27,149.64h-4.14c-0.26,0-0.45-0.21-0.45-0.45v-0.69c0-0.24,0.19-0.45,0.45-0.45h10.1c0.26,0,0.45,0.21,0.45,0.45v0.69
		c0,0.24-0.19,0.45-0.45,0.45h-4.14v14.56c0,0.24-0.21,0.45-0.45,0.45h-0.91c-0.24,0-0.45-0.21-0.45-0.45V149.64z"/>
</g>
<g>
	<path d="M229.58,70.04c0-0.36,0.28-0.68,0.63-0.68h7.84c6.75,0,12.28,5.65,12.28,12.56c0,6.98-5.53,12.63-12.28,12.63h-7.84
		c-0.35,0-0.63-0.32-0.63-0.68V70.04z M237.49,92.07c5.74,0,9.9-4.21,9.9-10.15c0-5.9-4.16-10.11-9.9-10.11h-5.25v20.27H237.49z"/>
	<path d="M254.88,70.04c0-0.36,0.31-0.68,0.67-0.68h1.33c0.38,0,0.67,0.32,0.67,0.68v15.01c0,4.1,2.48,7.31,6.58,7.31
		c4.13,0,6.65-3.13,6.65-7.24V70.04c0-0.36,0.28-0.68,0.67-0.68h1.33c0.35,0,0.67,0.32,0.67,0.68v15.23c0,5.47-3.78,9.65-9.31,9.65
		c-5.49,0-9.24-4.18-9.24-9.65V70.04z M258.76,64.35c0-0.97,0.73-1.73,1.64-1.73c0.94,0,1.68,0.76,1.68,1.73
		c0,0.94-0.74,1.69-1.68,1.69C259.5,66.04,258.76,65.29,258.76,64.35z M266.14,64.35c0-0.97,0.73-1.73,1.64-1.73
		c0.94,0,1.68,0.76,1.68,1.73c0,0.94-0.73,1.69-1.68,1.69C266.88,66.04,266.14,65.29,266.14,64.35z"/>
	<path d="M279.72,69.64c0-0.36,0.32-0.65,0.67-0.65h0.88l15.78,20.23c0.04,0,0.04,0,0.07,0V70.04c0-0.36,0.28-0.68,0.67-0.68H299
		c0.35,0,0.67,0.32,0.67,0.68v24.22c0,0.36-0.32,0.65-0.67,0.65h-0.63l-16.06-20.63h-0.04v19.58c0,0.36-0.28,0.68-0.67,0.68h-1.22
		c-0.35,0-0.67-0.32-0.67-0.68V69.64z"/>
	<path d="M311.21,82.42l-8.43-12.02c-0.28-0.47,0-1.04,0.56-1.04h1.64c0.25,0,0.46,0.18,0.56,0.32l7.07,10.04l7.07-10.04
		c0.1-0.14,0.31-0.32,0.56-0.32h1.64c0.56,0,0.84,0.58,0.56,1.04l-8.54,11.99v11.48c0,0.36-0.31,0.68-0.67,0.68h-1.36
		c-0.38,0-0.67-0.32-0.67-0.68V82.42z"/>
	<path d="M320.42,93.61l10.64-24.22c0.1-0.22,0.28-0.4,0.59-0.4H332c0.32,0,0.49,0.18,0.59,0.4l10.57,24.22
		c0.21,0.47-0.07,0.94-0.59,0.94h-1.4c-0.31,0-0.52-0.22-0.59-0.4l-2.59-5.94h-12.42l-2.55,5.94c-0.07,0.18-0.28,0.4-0.59,0.4h-1.4
		C320.49,94.55,320.21,94.08,320.42,93.61z M337.04,85.98c-1.71-3.92-3.39-7.88-5.11-11.81h-0.28l-5.11,11.81H337.04z"/>
</g>
<g>
	<path d="M153.69,105.94c0.05-0.38,0.32-0.7,0.82-0.7h0.73c0.36,0,0.64,0.19,0.77,0.47l10.01,22.1c0.09,0,0.09,0,0.14,0l10.01-22.1
		c0.14-0.28,0.36-0.47,0.77-0.47h0.73c0.5,0,0.77,0.33,0.82,0.7l5.37,31.47c0.14,0.66-0.23,1.08-0.82,1.08h-4.14
		c-0.41,0-0.77-0.38-0.86-0.7l-2.69-17.75c-0.05,0-0.14,0-0.14,0l-7.97,18.4c-0.09,0.28-0.36,0.52-0.77,0.52h-0.82
		c-0.41,0-0.64-0.23-0.77-0.52l-8.06-18.4c0,0-0.09,0-0.14,0l-2.64,17.75c-0.05,0.33-0.41,0.7-0.82,0.7h-4.1
		c-0.59,0-0.96-0.42-0.86-1.08L153.69,105.94z"/>
	<path d="M186.64,137.27l14.16-31.52c0.14-0.28,0.36-0.52,0.77-0.52h0.46c0.46,0,0.64,0.23,0.77,0.52l14.02,31.52
		c0.27,0.61-0.09,1.22-0.77,1.22h-3.96c-0.68,0-1-0.28-1.32-0.94l-2.23-5.06h-13.61l-2.23,5.06c-0.18,0.47-0.59,0.94-1.32,0.94
		h-3.96C186.73,138.49,186.37,137.88,186.64,137.27z M206.31,127.29l-4.55-10.3h-0.14l-4.46,10.3H206.31z"/>
	<path d="M224.24,111.33h-6.96c-0.5,0-0.86-0.42-0.86-0.89v-3.84c0-0.47,0.36-0.89,0.86-0.89h19.89c0.5,0,0.87,0.42,0.87,0.89v3.84
		c0,0.47-0.36,0.89-0.87,0.89h-6.96v26.27c0,0.47-0.41,0.89-0.86,0.89h-4.23c-0.46,0-0.87-0.42-0.87-0.89V111.33z"/>
	<path d="M243.45,106.6c0-0.47,0.36-0.89,0.87-0.89h18.53c0.5,0,0.87,0.42,0.87,0.89v3.84c0,0.47-0.36,0.89-0.87,0.89h-13.47v7.68
		h11.24c0.46,0,0.87,0.42,0.87,0.89v3.89c0,0.51-0.41,0.89-0.87,0.89h-11.24v8.2h13.47c0.5,0,0.87,0.42,0.87,0.89v3.84
		c0,0.47-0.36,0.89-0.87,0.89h-18.53c-0.5,0-0.87-0.42-0.87-0.89V106.6z"/>
	<path d="M274.22,105.94c0.05-0.38,0.32-0.7,0.82-0.7h0.73c0.36,0,0.64,0.19,0.77,0.47l10.01,22.1c0.09,0,0.09,0,0.14,0l10.01-22.1
		c0.14-0.28,0.36-0.47,0.77-0.47h0.73c0.5,0,0.77,0.33,0.82,0.7l5.37,31.47c0.14,0.66-0.23,1.08-0.82,1.08h-4.14
		c-0.41,0-0.77-0.38-0.87-0.7l-2.69-17.75c-0.05,0-0.14,0-0.14,0l-7.96,18.4c-0.09,0.28-0.36,0.52-0.77,0.52h-0.82
		c-0.41,0-0.64-0.23-0.77-0.52l-8.06-18.4c0,0-0.09,0-0.14,0l-2.64,17.75c-0.05,0.33-0.41,0.7-0.82,0.7h-4.1
		c-0.59,0-0.96-0.42-0.87-1.08L274.22,105.94z"/>
	<path d="M307.18,137.27l14.16-31.52c0.14-0.28,0.36-0.52,0.77-0.52h0.46c0.46,0,0.64,0.23,0.77,0.52l14.02,31.52
		c0.27,0.61-0.09,1.22-0.77,1.22h-3.96c-0.68,0-1-0.28-1.32-0.94l-2.23-5.06h-13.61l-2.23,5.06c-0.18,0.47-0.59,0.94-1.32,0.94
		h-3.96C307.27,138.49,306.91,137.88,307.18,137.27z M326.84,127.29l-4.55-10.3h-0.14l-4.46,10.3H326.84z"/>
	<path d="M344.78,111.33h-6.96c-0.5,0-0.87-0.42-0.87-0.89v-3.84c0-0.47,0.36-0.89,0.87-0.89h19.89c0.5,0,0.86,0.42,0.86,0.89v3.84
		c0,0.47-0.36,0.89-0.86,0.89h-6.96v26.27c0,0.47-0.41,0.89-0.87,0.89h-4.23c-0.46,0-0.86-0.42-0.86-0.89V111.33z"/>
	<path d="M363.71,98.54c0-1.87,1.46-3.37,3.28-3.37c1.82,0,3.28,1.5,3.28,3.37s-1.46,3.37-3.28,3.37
		C365.17,101.91,363.71,100.41,363.71,98.54z M363.99,106.6c0-0.47,0.41-0.89,0.87-0.89h4.23c0.46,0,0.86,0.42,0.86,0.89v31
		c0,0.47-0.41,0.89-0.86,0.89h-4.23c-0.46,0-0.87-0.42-0.87-0.89V106.6z"/>
	<path d="M378.92,106.83c0-0.61,0.46-1.12,1.09-1.12h4.01c0.59,0,1.09,0.51,1.09,1.12v12.64l11.47-13.3
		c0.18-0.23,0.46-0.47,0.86-0.47h4.55c0.87,0,1.32,0.98,0.73,1.69l-11.88,13.77l12.75,15.69c0.46,0.61,0.09,1.64-0.82,1.64h-4.96
		c-0.46,0-0.73-0.19-0.82-0.33l-11.88-15.08v14.28c0,0.61-0.5,1.12-1.09,1.12h-4.01c-0.64,0-1.09-0.51-1.09-1.12V106.83z"/>
</g>
<g>
	<path d="M427.1,113.19c3.53,0,6.09,1.26,8.47,3.35c0.28,0.29,0.31,0.72,0.03,1.01c-0.31,0.32-0.7,0.68-0.98,1.01
		c-0.31,0.36-0.52,0.32-0.91-0.04c-1.79-1.62-4.3-2.81-6.65-2.81c-5.53,0-9.73,4.75-9.73,10.33c0,5.54,4.2,10.4,9.73,10.4
		c3.85,0,6.3-1.51,6.3-1.51v-5.04h-4.02c-0.38,0-0.67-0.29-0.67-0.65v-1.33c0-0.4,0.28-0.68,0.67-0.68h6.05
		c0.35,0,0.63,0.32,0.63,0.68v8.24c0,0.18-0.14,0.47-0.28,0.58c0,0-3.57,2.38-8.64,2.38c-7,0-12.63-5.72-12.63-12.92
		S420.1,113.19,427.1,113.19z"/>
	<path d="M442.07,114.24c0-0.36,0.31-0.68,0.67-0.68h1.33c0.38,0,0.67,0.32,0.67,0.68v15.01c0,4.1,2.48,7.31,6.58,7.31
		c4.13,0,6.65-3.13,6.65-7.24v-15.08c0-0.36,0.28-0.68,0.67-0.68h1.33c0.35,0,0.67,0.32,0.67,0.68v15.23c0,5.47-3.78,9.65-9.31,9.65
		c-5.49,0-9.24-4.18-9.24-9.65V114.24z M445.96,108.55c0-0.97,0.73-1.73,1.64-1.73c0.94,0,1.68,0.76,1.68,1.73
		c0,0.94-0.74,1.69-1.68,1.69C446.69,110.24,445.96,109.48,445.96,108.55z M453.34,108.55c0-0.97,0.73-1.73,1.64-1.73
		c0.94,0,1.68,0.76,1.68,1.73c0,0.94-0.73,1.69-1.68,1.69C454.07,110.24,453.34,109.48,453.34,108.55z"/>
	<path d="M467.97,113.84c0-0.36,0.32-0.65,0.67-0.65h0.88l15.78,20.23c0.04,0,0.04,0,0.07,0v-19.19c0-0.36,0.28-0.68,0.67-0.68h1.22
		c0.35,0,0.66,0.32,0.66,0.68v24.22c0,0.36-0.31,0.65-0.66,0.65h-0.63l-16.06-20.63h-0.04v19.58c0,0.36-0.28,0.68-0.67,0.68h-1.22
		c-0.35,0-0.67-0.32-0.67-0.68V113.84z"/>
	<path d="M495.26,114.24c0-0.36,0.31-0.68,0.67-0.68h1.33c0.38,0,0.67,0.32,0.67,0.68v15.01c0,4.1,2.48,7.31,6.58,7.31
		c4.13,0,6.65-3.13,6.65-7.24v-15.08c0-0.36,0.28-0.68,0.67-0.68h1.33c0.35,0,0.67,0.32,0.67,0.68v15.23c0,5.47-3.78,9.65-9.31,9.65
		c-5.49,0-9.24-4.18-9.24-9.65V114.24z M499.14,108.55c0-0.97,0.73-1.73,1.64-1.73c0.94,0,1.68,0.76,1.68,1.73
		c0,0.94-0.74,1.69-1.68,1.69C499.88,110.24,499.14,109.48,499.14,108.55z M506.53,108.55c0-0.97,0.73-1.73,1.64-1.73
		c0.94,0,1.68,0.76,1.68,1.73c0,0.94-0.73,1.69-1.68,1.69C507.26,110.24,506.53,109.48,506.53,108.55z"/>
</g>
</svg>
