<?xml version="1.0" encoding="utf-8"?>
<!-- Generator: Adobe Illustrator 24.0.1, SVG Export Plug-In . SVG Version: 6.00 Build 0)  -->
<svg version="1.1" id="Layer" xmlns="http://www.w3.org/2000/svg" xmlns:xlink="http://www.w3.org/1999/xlink" x="0px" y="0px"
	 viewBox="0 0 461.49 173.9" style="enable-background:new 0 0 461.49 173.9;" xml:space="preserve">
<style type="text/css">
	.st0{display:none;fill-rule:evenodd;clip-rule:evenodd;fill:#FFFFFF;}
	.st1{fill-rule:evenodd;clip-rule:evenodd;fill:#FFCB05;}
	.st2{fill-rule:evenodd;clip-rule:evenodd;fill:#0066B3;}
	.st3{fill-rule:evenodd;clip-rule:evenodd;fill:#ED1C24;}
	.st4{fill-rule:evenodd;clip-rule:evenodd;fill:#00AEEF;}
	.st5{fill-rule:evenodd;clip-rule:evenodd;fill:#F58220;}
	.st6{fill-rule:evenodd;clip-rule:evenodd;fill:#00A651;}
	.st7{fill-rule:evenodd;clip-rule:evenodd;fill:#7670B3;}
	.st8{fill-rule:evenodd;clip-rule:evenodd;fill:#C657A0;}
	.st9{fill-rule:evenodd;clip-rule:evenodd;fill:#A6CE39;}
	.st10{fill:none;}
	.st11{display:none;}
	.st12{display:inline;fill:none;}
</style>
<g>
	<rect id="Bg" x="-58.81" y="-63.32" class="st0" width="579.11" height="289.56"/>
	<g>
		<circle class="st1" cx="4.08" cy="99.29" r="4.08"/>
		<path class="st1" d="M9.85,105.06c1.59-1.59,4.18-1.59,5.77,0c1.59,1.59,1.59,4.18,0,5.77c-1.59,1.59-4.18,1.59-5.77,0
			C8.26,109.24,8.26,106.65,9.85,105.06z"/>
		<path class="st1" d="M18.51,113.72c1.59-1.59,4.18-1.59,5.77,0c1.59,1.59,1.59,4.18,0,5.77c-1.59,1.59-4.18,1.59-5.77,0
			C16.91,117.89,16.91,115.31,18.51,113.72z"/>
		<path class="st2" d="M35.82,113.72c1.59-1.59,4.18-1.59,5.77,0c1.59,1.59,1.59,4.18,0,5.77c-1.59,1.59-4.18,1.59-5.77,0
			C34.22,117.89,34.22,115.31,35.82,113.72z"/>
		<path class="st3" d="M44.47,105.06c1.59-1.59,4.18-1.59,5.77,0c1.59,1.59,1.59,4.18,0,5.77c-1.59,1.59-4.18,1.59-5.77,0
			C42.88,109.24,42.88,106.65,44.47,105.06z"/>
		<path class="st4" d="M61.78,87.75c1.59-1.59,4.18-1.59,5.77,0c1.59,1.59,1.59,4.18,0,5.77c-1.59,1.59-4.18,1.59-5.77,0
			C60.19,91.93,60.19,89.34,61.78,87.75z"/>
		<path class="st5" d="M70.44,79.09c1.59-1.59,4.18-1.59,5.77,0c1.59,1.59,1.59,4.18,0,5.77c-1.59,1.59-4.18,1.59-5.77,0
			C68.85,83.27,68.85,80.69,70.44,79.09z"/>
		<path class="st6" d="M79.09,70.44c1.59-1.59,4.18-1.59,5.77,0c1.59,1.59,1.59,4.18,0,5.77c-1.59,1.59-4.18,1.59-5.77,0
			C77.5,74.62,77.5,72.03,79.09,70.44z"/>
		<path class="st7" d="M87.75,61.78c1.59-1.59,4.18-1.59,5.77,0c1.59,1.59,1.59,4.18,0,5.77c-1.59,1.59-4.18,1.59-5.77,0
			C86.16,65.96,86.16,63.38,87.75,61.78z"/>
		<path class="st4" d="M96.4,53.13c1.59-1.59,4.18-1.59,5.77,0c1.59,1.59,1.59,4.18,0,5.77c-1.59,1.59-4.18,1.59-5.77,0
			C94.81,57.3,94.81,54.72,96.4,53.13z"/>
		<circle class="st1" cx="107.95" cy="47.36" r="4.08"/>
		<path class="st4" d="M113.72,35.82c1.59-1.59,4.18-1.59,5.77,0c1.59,1.59,1.59,4.18,0,5.77c-1.59,1.59-4.18,1.59-5.77,0
			C112.12,39.99,112.12,37.41,113.72,35.82z"/>
		<path class="st8" d="M122.37,27.16c1.59-1.59,4.18-1.59,5.77,0c1.59,1.59,1.59,4.18,0,5.77c-1.59,1.59-4.18,1.59-5.77,0
			C120.78,31.34,120.78,28.75,122.37,27.16z"/>
		<path class="st5" d="M131.03,18.51c1.59-1.59,4.18-1.59,5.77,0c1.59,1.59,1.59,4.18,0,5.77c-1.59,1.59-4.18,1.59-5.77,0
			C129.43,22.68,129.43,20.1,131.03,18.51z"/>
		<path class="st9" d="M139.68,9.85c1.59-1.59,4.18-1.59,5.77,0c1.59,1.59,1.59,4.18,0,5.77c-1.59,1.59-4.18,1.59-5.77,0
			C138.09,14.03,138.09,11.44,139.68,9.85z"/>
		<path class="st5" d="M148.34,1.2c1.59-1.59,4.18-1.59,5.77,0c1.59,1.59,1.59,4.18,0,5.77c-1.59,1.59-4.18,1.59-5.77,0
			C146.74,5.37,146.74,2.79,148.34,1.2z"/>
		<path class="st2" d="M53.13,96.41c1.59-1.59,4.18-1.59,5.77,0c1.59,1.59,1.59,4.18,0,5.77c-1.59,1.59-4.18,1.59-5.77,0
			C51.53,100.58,51.53,98,53.13,96.41z"/>
		<path class="st3" d="M53.13,113.72c1.59-1.59,4.18-1.59,5.77,0c1.59,1.59,1.59,4.18,0,5.77c-1.59,1.59-4.18,1.59-5.77,0
			C51.53,117.89,51.53,115.31,53.13,113.72z"/>
		<path class="st3" d="M61.78,122.37c1.59-1.59,4.18-1.59,5.77,0c1.59,1.59,1.59,4.18,0,5.77c-1.59,1.59-4.18,1.59-5.77,0
			C60.19,126.55,60.19,123.96,61.78,122.37z"/>
		<path class="st3" d="M70.44,131.03c1.59-1.59,4.18-1.59,5.77,0c1.59,1.59,1.59,4.18,0,5.77c-1.59,1.59-4.18,1.59-5.77,0
			C68.84,135.2,68.84,132.62,70.44,131.03z"/>
		<circle class="st4" cx="73.32" cy="99.29" r="4.08"/>
		<circle class="st4" cx="81.98" cy="107.95" r="4.08"/>
		<path class="st4" d="M87.75,113.72c1.59-1.59,4.18-1.59,5.77,0c1.59,1.59,1.59,4.18,0,5.77c-1.59,1.59-4.18,1.59-5.77,0
			C86.16,117.89,86.16,115.31,87.75,113.72z"/>
		<path class="st4" d="M96.4,122.37c1.59-1.59,4.18-1.59,5.77,0c1.59,1.59,1.59,4.18,0,5.77c-1.59,1.59-4.18,1.59-5.77,0
			C94.81,126.55,94.81,123.96,96.4,122.37z"/>
		<path class="st5" d="M79.09,87.75c1.59-1.59,4.18-1.59,5.77,0c1.59,1.59,1.59,4.18,0,5.77c-1.59,1.59-4.18,1.59-5.77,0
			C77.5,91.93,77.5,89.34,79.09,87.75z"/>
		<path class="st5" d="M87.75,96.4c1.59-1.59,4.18-1.59,5.77,0c1.59,1.59,1.59,4.18,0,5.77c-1.59,1.59-4.18,1.59-5.77,0
			C86.16,100.58,86.16,98,87.75,96.4z"/>
		<path class="st5" d="M96.4,105.06c1.59-1.59,4.18-1.59,5.77,0c1.59,1.59,1.59,4.18,0,5.77c-1.59,1.59-4.18,1.59-5.77,0
			C94.81,109.24,94.81,106.65,96.4,105.06z"/>
		<circle class="st5" cx="107.95" cy="116.6" r="4.08"/>
		<path class="st5" d="M113.72,122.37c1.59-1.59,4.18-1.59,5.77,0c1.59,1.59,1.59,4.18,0,5.77c-1.59,1.59-4.18,1.59-5.77,0
			C112.12,126.55,112.12,123.96,113.72,122.37z"/>
		<path class="st5" d="M122.37,131.03c1.59-1.59,4.18-1.59,5.77,0c1.59,1.59,1.59,4.18,0,5.77c-1.59,1.59-4.18,1.59-5.77,0
			C120.78,135.2,120.78,132.62,122.37,131.03z"/>
		<path class="st5" d="M131.03,139.68c1.59-1.59,4.18-1.59,5.77,0c1.59,1.59,1.59,4.18,0,5.77c-1.59,1.59-4.18,1.59-5.77,0
			C129.43,143.86,129.43,141.28,131.03,139.68z"/>
		<path class="st5" d="M139.68,148.34c1.59-1.59,4.18-1.59,5.77,0c1.59,1.59,1.59,4.18,0,5.77c-1.59,1.59-4.18,1.59-5.77,0
			C138.09,152.51,138.09,149.93,139.68,148.34z"/>
		<path class="st6" d="M87.75,79.09c1.59-1.59,4.18-1.59,5.77,0c1.59,1.59,1.59,4.18,0,5.77c-1.59,1.59-4.18,1.59-5.77,0
			C86.16,83.27,86.16,80.69,87.75,79.09z"/>
		<path class="st7" d="M96.4,70.44c1.59-1.59,4.18-1.59,5.77,0c1.59,1.59,1.59,4.18,0,5.77c-1.59,1.59-4.18,1.59-5.77,0
			C94.81,74.62,94.81,72.03,96.4,70.44z"/>
		<path class="st7" d="M105.06,79.09c1.59-1.59,4.18-1.59,5.77,0c1.59,1.59,1.59,4.18,0,5.77c-1.59,1.59-4.18,1.59-5.77,0
			C103.47,83.27,103.47,80.69,105.06,79.09z"/>
		<path class="st7" d="M113.72,87.75c1.59-1.59,4.18-1.59,5.77,0c1.59,1.59,1.59,4.18,0,5.77c-1.59,1.59-4.18,1.59-5.77,0
			C112.12,91.93,112.12,89.34,113.72,87.75z"/>
		<circle class="st7" cx="125.26" cy="99.29" r="4.08"/>
		<path class="st7" d="M131.03,105.06c1.59-1.59,4.18-1.59,5.77,0c1.59,1.59,1.59,4.18,0,5.77c-1.59,1.59-4.18,1.59-5.77,0
			C129.43,109.24,129.43,106.65,131.03,105.06z"/>
		<circle class="st4" cx="107.95" cy="64.67" r="4.08"/>
		<path class="st4" d="M113.72,70.44c1.59-1.59,4.18-1.59,5.77,0c1.59,1.59,1.59,4.18,0,5.77c-1.59,1.59-4.18,1.59-5.77,0
			C112.12,74.62,112.12,72.03,113.72,70.44z"/>
		<path class="st4" d="M122.37,79.09c1.59-1.59,4.18-1.59,5.77,0c1.59,1.59,1.59,4.18,0,5.77c-1.59,1.59-4.18,1.59-5.77,0
			C120.78,83.27,120.78,80.69,122.37,79.09z"/>
		<path class="st4" d="M131.03,87.75c1.59-1.59,4.18-1.59,5.77,0c1.59,1.59,1.59,4.18,0,5.77c-1.59,1.59-4.18,1.59-5.77,0
			C129.43,91.93,129.43,89.34,131.03,87.75z"/>
		<circle class="st1" cx="116.6" cy="56.01" r="4.08"/>
		<circle class="st1" cx="125.26" cy="64.67" r="4.08"/>
		<circle class="st4" cx="125.26" cy="47.36" r="4.08"/>
		<path class="st4" d="M131.03,53.13c1.59-1.59,4.18-1.59,5.77,0c1.59,1.59,1.59,4.18,0,5.77c-1.59,1.59-4.18,1.59-5.77,0
			C129.43,57.3,129.43,54.72,131.03,53.13z"/>
		<path class="st4" d="M139.68,61.78c1.59-1.59,4.18-1.59,5.77,0c1.59,1.59,1.59,4.18,0,5.77c-1.59,1.59-4.18,1.59-5.77,0
			C138.09,65.96,138.09,63.38,139.68,61.78z"/>
		<path class="st4" d="M148.34,70.44c1.59-1.59,4.18-1.59,5.77,0c1.59,1.59,1.59,4.18,0,5.77c-1.59,1.59-4.18,1.59-5.77,0
			C146.74,74.62,146.74,72.03,148.34,70.44z"/>
		<path class="st8" d="M131.03,35.82c1.59-1.59,4.18-1.59,5.77,0c1.59,1.59,1.59,4.18,0,5.77c-1.59,1.59-4.18,1.59-5.77,0
			C129.43,39.99,129.43,37.41,131.03,35.82z"/>
		<path class="st8" d="M139.68,44.47c1.59-1.59,4.18-1.59,5.77,0c1.59,1.59,1.59,4.18,0,5.77c-1.59,1.59-4.18,1.59-5.77,0
			C138.09,48.65,138.09,46.07,139.68,44.47z"/>
		<path class="st8" d="M148.34,53.13c1.59-1.59,4.18-1.59,5.77,0c1.59,1.59,1.59,4.18,0,5.77c-1.59,1.59-4.18,1.59-5.77,0
			C146.74,57.3,146.74,54.72,148.34,53.13z"/>
		<circle class="st8" cx="159.88" cy="64.67" r="4.08"/>
		<path class="st8" d="M165.65,70.44c1.59-1.59,4.18-1.59,5.77,0c1.59,1.59,1.59,4.18,0,5.77c-1.59,1.59-4.18,1.59-5.77,0
			C164.06,74.62,164.06,72.03,165.65,70.44z"/>
		<path class="st8" d="M174.3,79.09c1.59-1.59,4.18-1.59,5.77,0c1.59,1.59,1.59,4.18,0,5.77c-1.59,1.59-4.18,1.59-5.77,0
			C172.71,83.27,172.71,80.69,174.3,79.09z"/>
		<path class="st8" d="M182.96,87.75c1.59-1.59,4.18-1.59,5.77,0c1.59,1.59,1.59,4.18,0,5.77c-1.59,1.59-4.18,1.59-5.77,0
			C181.37,91.93,181.37,89.34,182.96,87.75z"/>
		<path class="st5" d="M139.68,27.16c1.59-1.59,4.18-1.59,5.77,0c1.59,1.59,1.59,4.18,0,5.77c-1.59,1.59-4.18,1.59-5.77,0
			C138.09,31.34,138.09,28.75,139.68,27.16z"/>
		<path class="st5" d="M148.34,35.82c1.59-1.59,4.18-1.59,5.77,0c1.59,1.59,1.59,4.18,0,5.77c-1.59,1.59-4.18,1.59-5.77,0
			C146.74,39.99,146.74,37.41,148.34,35.82z"/>
		<circle class="st5" cx="159.88" cy="47.36" r="4.08"/>
		<circle class="st5" cx="168.53" cy="56.01" r="4.08"/>
		<circle class="st5" cx="177.19" cy="64.67" r="4.08"/>
		<path class="st5" d="M182.96,70.44c1.59-1.59,4.18-1.59,5.77,0c1.59,1.59,1.59,4.18,0,5.77c-1.59,1.59-4.18,1.59-5.77,0
			C181.37,74.62,181.37,72.03,182.96,70.44z"/>
		<path class="st5" d="M191.61,79.09c1.59-1.59,4.18-1.59,5.77,0c1.59,1.59,1.59,4.18,0,5.77c-1.59,1.59-4.18,1.59-5.77,0
			C190.02,83.27,190.02,80.69,191.61,79.09z"/>
		<path class="st5" d="M200.27,87.75c1.59-1.59,4.18-1.59,5.77,0c1.59,1.59,1.59,4.18,0,5.77c-1.59,1.59-4.18,1.59-5.77,0
			C198.68,91.93,198.68,89.34,200.27,87.75z"/>
		<path class="st9" d="M148.34,18.51c1.59-1.59,4.18-1.59,5.77,0c1.59,1.59,1.59,4.18,0,5.77c-1.59,1.59-4.18,1.59-5.77,0
			C146.74,22.68,146.74,20.1,148.34,18.51z"/>
		<path class="st9" d="M156.99,27.16c1.59-1.59,4.18-1.59,5.77,0c1.59,1.59,1.59,4.18,0,5.77c-1.59,1.59-4.18,1.59-5.77,0
			C155.4,31.34,155.4,28.75,156.99,27.16z"/>
		<path class="st9" d="M165.65,35.82c1.59-1.59,4.18-1.59,5.77,0c1.59,1.59,1.59,4.18,0,5.77c-1.59,1.59-4.18,1.59-5.77,0
			C164.06,39.99,164.06,37.41,165.65,35.82z"/>
		<circle class="st9" cx="177.19" cy="47.36" r="4.08"/>
		<path class="st9" d="M182.96,53.13c1.59-1.59,4.18-1.59,5.77,0c1.59,1.59,1.59,4.18,0,5.77c-1.59,1.59-4.18,1.59-5.77,0
			C181.37,57.3,181.37,54.72,182.96,53.13z"/>
		<path class="st9" d="M191.61,61.78c1.59-1.59,4.18-1.59,5.77,0c1.59,1.59,1.59,4.18,0,5.77c-1.59,1.59-4.18,1.59-5.77,0
			C190.02,65.96,190.02,63.38,191.61,61.78z"/>
		<path class="st5" d="M156.99,9.85c1.59-1.59,4.18-1.59,5.77,0c1.59,1.59,1.59,4.18,0,5.77c-1.59,1.59-4.18,1.59-5.77,0
			C155.4,14.03,155.4,11.44,156.99,9.85z"/>
		<circle class="st5" cx="168.53" cy="21.39" r="4.08"/>
		<path class="st5" d="M174.3,27.16c1.59-1.59,4.18-1.59,5.77,0c1.59,1.59,1.59,4.18,0,5.77c-1.59,1.59-4.18,1.59-5.77,0
			C172.71,31.34,172.71,28.75,174.3,27.16z"/>
		<path class="st5" d="M182.96,35.82c1.59-1.59,4.18-1.59,5.77,0c1.59,1.59,1.59,4.18,0,5.77c-1.59,1.59-4.18,1.59-5.77,0
			C181.37,39.99,181.37,37.41,182.96,35.82z"/>
		<path class="st5" d="M191.61,44.47c1.59-1.59,4.18-1.59,5.77,0c1.59,1.59,1.59,4.18,0,5.77c-1.59,1.59-4.18,1.59-5.77,0
			C190.02,48.65,190.02,46.07,191.61,44.47z"/>
		<circle class="st5" cx="203.16" cy="56.01" r="4.08"/>
		<circle class="st5" cx="211.81" cy="64.67" r="4.08"/>
		<path class="st5" d="M217.58,70.44c1.59-1.59,4.18-1.59,5.77,0c1.59,1.59,1.59,4.18,0,5.77c-1.59,1.59-4.18,1.59-5.77,0
			C215.99,74.62,215.99,72.03,217.58,70.44z"/>
	</g>
	<g>
		<rect x="445.83" y="95.06" class="st10" width="2.29" height="2.29"/>
	</g>
</g>
<g class="st11">
	<rect x="443.54" y="95.06" class="st12" width="2.29" height="2.29"/>
</g>
<g class="st11">
	<rect x="443.54" y="95.06" class="st12" width="2.29" height="2.29"/>
</g>
<g>
	<path d="M228.6,153.53h-2.29c-0.24,0-0.43-0.21-0.43-0.45v-1.49c0-0.09,0.07-0.28,0.14-0.36l3.48-2.7h2.19
		c0.24,0,0.43,0.21,0.43,0.45v15.22c0,0.24-0.19,0.45-0.43,0.45h-2.64c-0.26,0-0.45-0.21-0.45-0.45V153.53z"/>
	<path d="M234.77,160.86v-2.51l8.31-9.94c0.07-0.07,0.14-0.14,0.36-0.14h1.71c0.24,0,0.45,0.19,0.45,0.45l0.02,9.72h1.88
		c0.26,0,0.45,0.19,0.45,0.43v1.97c0,0.24-0.19,0.45-0.45,0.45h-1.88l0.02,2.92c0,0.24-0.21,0.45-0.45,0.45h-2.55
		c-0.24,0-0.45-0.21-0.45-0.45v-2.89h-6.98C234.96,161.31,234.77,161.1,234.77,160.86z M242.29,158.37v-4.41l-3.79,4.41H242.29z"/>
	<path d="M259.54,148.5c0-0.24,0.19-0.45,0.43-0.45h5.33c4.6,0,8.36,3.72,8.36,8.28c0,4.6-3.76,8.32-8.36,8.32h-5.33
		c-0.24,0-0.43-0.21-0.43-0.45V148.5z M264.92,163.02c3.91,0,6.74-2.77,6.74-6.69c0-3.89-2.83-6.66-6.74-6.66h-3.57v13.35H264.92z"
		/>
	<path d="M277.5,148.5c0-0.24,0.19-0.45,0.45-0.45h9.38c0.26,0,0.45,0.21,0.45,0.45v0.69c0,0.24-0.19,0.45-0.45,0.45h-8v5.79h6.84
		c0.24,0,0.45,0.21,0.45,0.45v0.69c0,0.26-0.21,0.45-0.45,0.45h-6.84v6.05h8c0.26,0,0.45,0.21,0.45,0.45v0.69
		c0,0.24-0.19,0.45-0.45,0.45h-9.38c-0.26,0-0.45-0.21-0.45-0.45V148.5z"/>
	<path d="M299.1,148.15c0.05-0.19,0.24-0.33,0.43-0.33h0.38c0.17,0,0.36,0.12,0.41,0.26l4.72,13.07c0.05,0,0.07,0,0.12,0l4.64-13.07
		c0.05-0.14,0.24-0.26,0.41-0.26h0.38c0.19,0,0.38,0.14,0.43,0.33l3.07,15.93c0.07,0.33-0.07,0.57-0.43,0.57h-0.95
		c-0.19,0-0.38-0.17-0.43-0.33l-2.12-12.21c-0.02,0-0.07,0-0.1,0l-4.38,12.52c-0.05,0.14-0.26,0.26-0.41,0.26h-0.43
		c-0.14,0-0.36-0.12-0.41-0.26l-4.43-12.52c-0.02,0-0.07,0-0.1,0l-2.07,12.21c-0.02,0.17-0.24,0.33-0.43,0.33h-0.95
		c-0.36,0-0.5-0.24-0.43-0.57L299.1,148.15z"/>
	<path d="M315.63,164.04l7.24-15.96c0.07-0.14,0.19-0.26,0.41-0.26h0.24c0.21,0,0.33,0.12,0.4,0.26l7.19,15.96
		c0.14,0.31-0.05,0.62-0.4,0.62h-0.95c-0.21,0-0.36-0.14-0.41-0.26l-1.76-3.91h-8.46l-1.74,3.91c-0.05,0.12-0.19,0.26-0.4,0.26
		h-0.95C315.68,164.65,315.49,164.34,315.63,164.04z M326.95,159.01c-1.17-2.58-2.31-5.19-3.48-7.78h-0.19l-3.48,7.78H326.95z"/>
	<path d="M333.88,148.5c0-0.24,0.19-0.45,0.45-0.45h6.17c2.86,0,5.19,2.23,5.19,5.05c0,2.18-1.45,4.01-3.53,4.84l3.26,6.02
		c0.17,0.31,0,0.69-0.4,0.69h-1.21c-0.21,0-0.33-0.12-0.38-0.21l-3.17-6.28h-4.55v6.05c0,0.24-0.21,0.45-0.45,0.45h-0.93
		c-0.26,0-0.45-0.21-0.45-0.45V148.5z M340.38,156.59c1.83,0,3.43-1.52,3.43-3.46c0-1.8-1.6-3.34-3.43-3.34h-4.62v6.8H340.38z"/>
	<path d="M348.07,163.78l8.65-13.99v-0.07h-7.5c-0.24,0-0.45-0.21-0.45-0.45v-0.76c0-0.24,0.21-0.45,0.45-0.45h9.65
		c0.24,0,0.45,0.21,0.45,0.45v0.31l-8.79,14.16v0.02h7.86c0.26,0,0.45,0.21,0.45,0.45v0.76c0,0.24-0.19,0.45-0.45,0.45h-9.86
		c-0.24,0-0.45-0.21-0.45-0.45V163.78z"/>
	<path d="M369.82,147.82c4.76,0,8.58,3.82,8.58,8.56s-3.81,8.51-8.58,8.51s-8.55-3.77-8.55-8.51S365.06,147.82,369.82,147.82z
		 M369.82,163.23c3.79,0,6.91-3.08,6.91-6.85s-3.12-6.9-6.91-6.9s-6.88,3.13-6.88,6.9S366.03,163.23,369.82,163.23z"/>
</g>
<g>
	<path d="M303.02,84.37c0-0.16,0.14-0.3,0.3-0.3h0.64c0.16,0,0.3,0.14,0.3,0.3v10.57c0,0.16-0.14,0.3-0.3,0.3h-0.64
		c-0.16,0-0.3-0.14-0.3-0.3V84.37z"/>
	<path d="M307.06,84.2c0-0.16,0.14-0.29,0.3-0.29h0.4l7.23,8.97c0.02,0,0.02,0,0.03,0v-8.51c0-0.16,0.13-0.3,0.3-0.3h0.56
		c0.16,0,0.3,0.14,0.3,0.3v10.74c0,0.16-0.14,0.29-0.3,0.29h-0.29l-7.36-9.15h-0.02v8.68c0,0.16-0.13,0.3-0.3,0.3h-0.56
		c-0.16,0-0.3-0.14-0.3-0.3V84.2z"/>
	<path d="M320.57,85.14h-2.79c-0.18,0-0.3-0.14-0.3-0.3v-0.46c0-0.16,0.13-0.3,0.3-0.3h6.8c0.18,0,0.3,0.14,0.3,0.3v0.46
		c0,0.16-0.13,0.3-0.3,0.3h-2.79v9.8c0,0.16-0.14,0.3-0.3,0.3h-0.61c-0.16,0-0.3-0.14-0.3-0.3V85.14z"/>
	<path d="M326.17,84.37c0-0.16,0.13-0.3,0.3-0.3h6.32c0.18,0,0.3,0.14,0.3,0.3v0.46c0,0.16-0.13,0.3-0.3,0.3h-5.39v3.89h4.6
		c0.16,0,0.3,0.14,0.3,0.3v0.46c0,0.18-0.14,0.3-0.3,0.3h-4.6v4.07h5.39c0.18,0,0.3,0.14,0.3,0.3v0.46c0,0.16-0.13,0.3-0.3,0.3
		h-6.32c-0.18,0-0.3-0.14-0.3-0.3V84.37z"/>
	<path d="M335.18,84.37c0-0.16,0.13-0.3,0.3-0.3h4.15c1.92,0,3.5,1.5,3.5,3.4c0,1.47-0.98,2.7-2.37,3.26l2.2,4.05
		c0.11,0.21,0,0.46-0.27,0.46h-0.82c-0.14,0-0.22-0.08-0.26-0.14l-2.13-4.23h-3.06v4.07c0,0.16-0.14,0.3-0.31,0.3h-0.62
		c-0.18,0-0.3-0.14-0.3-0.3V84.37z M339.56,89.82c1.24,0,2.31-1.02,2.31-2.33c0-1.21-1.07-2.25-2.31-2.25h-3.11v4.58H339.56z"/>
	<path d="M345.29,84.2c0-0.16,0.14-0.29,0.3-0.29h0.4l7.23,8.97c0.02,0,0.02,0,0.03,0v-8.51c0-0.16,0.13-0.3,0.3-0.3h0.56
		c0.16,0,0.31,0.14,0.31,0.3v10.74c0,0.16-0.14,0.29-0.31,0.29h-0.29l-7.36-9.15h-0.02v8.68c0,0.16-0.13,0.3-0.3,0.3h-0.56
		c-0.16,0-0.3-0.14-0.3-0.3V84.2z"/>
	<path d="M355.68,94.83l4.88-10.74c0.05-0.1,0.13-0.18,0.27-0.18h0.16c0.14,0,0.22,0.08,0.27,0.18l4.84,10.74
		c0.1,0.21-0.03,0.42-0.27,0.42h-0.64c-0.14,0-0.24-0.1-0.27-0.18l-1.19-2.63h-5.69l-1.17,2.63c-0.03,0.08-0.13,0.18-0.27,0.18
		h-0.64C355.72,95.24,355.59,95.04,355.68,94.83z M363.3,91.44c-0.79-1.74-1.56-3.5-2.34-5.24h-0.13l-2.34,5.24H363.3z"/>
	<path d="M372.28,83.91c1.62,0,2.79,0.56,3.88,1.48c0.13,0.13,0.14,0.32,0.02,0.45l-0.43,0.43c-0.13,0.16-0.26,0.14-0.42-0.02
		c-0.83-0.72-1.97-1.2-3.06-1.2c-2.53,0-4.47,2.12-4.47,4.6c0,2.46,1.94,4.58,4.47,4.58c1.4,0,2.21-0.56,3.06-1.2
		c0.16-0.13,0.29-0.11,0.38-0.05l0.48,0.43c0.13,0.1,0.1,0.32-0.02,0.43c-1.09,1.05-2.47,1.55-3.9,1.55c-3.21,0-5.79-2.54-5.79-5.73
		S369.07,83.91,372.28,83.91z"/>
	<path d="M378.16,84.37c0-0.16,0.14-0.3,0.3-0.3h0.64c0.16,0,0.3,0.14,0.3,0.3v10.57c0,0.16-0.14,0.3-0.3,0.3h-0.64
		c-0.16,0-0.3-0.14-0.3-0.3V84.37z"/>
	<path d="M387.14,83.91c3.21,0,5.77,2.57,5.77,5.76s-2.57,5.73-5.77,5.73s-5.76-2.54-5.76-5.73S383.93,83.91,387.14,83.91z
		 M387.14,94.28c2.55,0,4.65-2.07,4.65-4.61s-2.1-4.64-4.65-4.64s-4.63,2.11-4.63,4.64S384.59,94.28,387.14,94.28z"/>
	<path d="M394.88,84.2c0-0.16,0.14-0.29,0.3-0.29h0.4l7.23,8.97c0.02,0,0.02,0,0.03,0v-8.51c0-0.16,0.13-0.3,0.3-0.3h0.56
		c0.16,0,0.31,0.14,0.31,0.3v10.74c0,0.16-0.14,0.29-0.31,0.29h-0.29l-7.36-9.15h-0.02v8.68c0,0.16-0.13,0.3-0.3,0.3h-0.56
		c-0.16,0-0.3-0.14-0.3-0.3V84.2z"/>
	<path d="M405.27,94.83l4.88-10.74c0.05-0.1,0.13-0.18,0.27-0.18h0.16c0.14,0,0.22,0.08,0.27,0.18l4.84,10.74
		c0.1,0.21-0.03,0.42-0.27,0.42h-0.64c-0.14,0-0.24-0.1-0.27-0.18l-1.19-2.63h-5.69l-1.17,2.63c-0.03,0.08-0.13,0.18-0.27,0.18
		h-0.64C405.3,95.24,405.17,95.04,405.27,94.83z M412.89,91.44c-0.79-1.74-1.56-3.5-2.34-5.24h-0.13l-2.34,5.24H412.89z"/>
	<path d="M416.96,84.37c0-0.16,0.13-0.3,0.3-0.3h0.63c0.16,0,0.3,0.14,0.3,0.3v9.8h4.62c0.18,0,0.3,0.14,0.3,0.3v0.46
		c0,0.16-0.13,0.3-0.3,0.3h-5.55c-0.18,0-0.3-0.14-0.3-0.3V84.37z"/>
	<path d="M426.88,88c0-0.11,0.08-0.2,0.19-0.2h2.39c2.06,0,3.75,1.67,3.75,3.71c0,2.06-1.69,3.73-3.75,3.73h-2.39
		c-0.11,0-0.19-0.1-0.19-0.2V88z M429.29,94.51c1.75,0,3.02-1.25,3.02-3c0-1.74-1.27-2.99-3.02-2.99h-1.6v5.99H429.29z"/>
	<path d="M434.54,88c0-0.11,0.08-0.2,0.2-0.2h4.21c0.12,0,0.2,0.1,0.2,0.2v0.31c0,0.11-0.09,0.2-0.2,0.2h-3.59v2.6h3.07
		c0.11,0,0.2,0.1,0.2,0.2v0.31c0,0.12-0.1,0.2-0.2,0.2h-3.07v2.71h3.59c0.12,0,0.2,0.1,0.2,0.2v0.31c0,0.11-0.09,0.2-0.2,0.2h-4.21
		c-0.12,0-0.2-0.1-0.2-0.2V88z"/>
	<path d="M442.6,88c0-0.11,0.08-0.2,0.2-0.2h0.42c0.11,0,0.2,0.1,0.2,0.2v6.53h3.08c0.12,0,0.2,0.1,0.2,0.2v0.31
		c0,0.11-0.09,0.2-0.2,0.2h-3.7c-0.12,0-0.2-0.1-0.2-0.2V88z"/>
	<path d="M446.84,94.97l3.25-7.16c0.03-0.06,0.08-0.12,0.18-0.12h0.11c0.1,0,0.15,0.05,0.18,0.12l3.23,7.16
		c0.06,0.14-0.02,0.28-0.18,0.28h-0.43c-0.1,0-0.16-0.06-0.18-0.12l-0.79-1.75h-3.79l-0.78,1.75c-0.02,0.05-0.09,0.12-0.18,0.12
		h-0.43C446.86,95.24,446.77,95.1,446.84,94.97z M451.91,92.71c-0.52-1.16-1.04-2.33-1.56-3.49h-0.08l-1.56,3.49H451.91z"/>
	<path d="M454.14,94.13c0.05-0.06,0.11-0.14,0.16-0.2c0.11-0.14,0.22-0.22,0.37-0.1c0.08,0.06,0.85,0.81,1.81,0.81
		c0.87,0,1.43-0.54,1.43-1.17c0-0.73-0.64-1.17-1.87-1.68c-1.17-0.51-1.88-0.99-1.88-2.2c0-0.72,0.58-1.89,2.28-1.89
		c1.05,0,1.83,0.54,1.83,0.54c0.06,0.03,0.19,0.16,0.06,0.36c-0.04,0.06-0.09,0.14-0.13,0.2c-0.1,0.15-0.2,0.19-0.37,0.1
		c-0.08-0.04-0.75-0.49-1.4-0.49c-1.13,0-1.47,0.72-1.47,1.17c0,0.71,0.54,1.13,1.44,1.5c1.44,0.58,2.37,1.13,2.37,2.36
		c0,1.11-1.06,1.91-2.31,1.91c-1.26,0-2.12-0.73-2.25-0.86C454.12,94.41,454.02,94.33,454.14,94.13z"/>
</g>
<g>
	<path d="M231.52,67.32c0-0.41,0.32-0.78,0.72-0.78h9.15c7.68,0,13.96,6.43,13.96,14.28c0,7.94-6.29,14.36-13.96,14.36h-9.15
		c-0.4,0-0.72-0.37-0.72-0.78V67.32z M240.83,91.3c5.85,0,10.1-4.42,10.1-10.48c0-6.02-4.26-10.4-10.1-10.4h-5.25V91.3H240.83z"/>
	<path d="M260.48,67.32c0-0.41,0.36-0.78,0.76-0.78h2.63c0.4,0,0.76,0.37,0.76,0.78v27.09c0,0.41-0.36,0.78-0.76,0.78h-2.63
		c-0.4,0-0.76-0.37-0.76-0.78V67.32z"/>
	<path d="M267.99,94.12l12.21-27.54c0.12-0.25,0.48-0.45,0.68-0.45h0.4c0.2,0,0.56,0.2,0.68,0.45l12.13,27.54
		c0.24,0.53-0.08,1.06-0.68,1.06h-2.51c-0.48,0-0.76-0.25-0.92-0.61l-2.47-5.61h-13.01c-0.8,1.88-1.63,3.72-2.43,5.61
		c-0.12,0.29-0.44,0.61-0.92,0.61h-2.51C268.07,95.18,267.75,94.65,267.99,94.12z M286.01,85.44l-4.89-11.21h-0.2l-4.85,11.21
		H286.01z"/>
</g>
<g>
	<path d="M259.43,64.46l-0.42-0.89c-0.12-0.25,0-0.49,0.18-0.58l4.68-2.79c0.18-0.12,0.63-0.18,0.78,0.09l0.69,1.35
		c0.15,0.31,0.06,0.61-0.18,0.74l-5.01,2.21C259.73,64.79,259.55,64.7,259.43,64.46z"/>
</g>
<g>
	<path d="M152.36,105.45c0.05-0.38,0.32-0.7,0.82-0.7h0.73c0.36,0,0.64,0.19,0.77,0.47l10.01,22.1c0.09,0,0.09,0,0.14,0l10.01-22.1
		c0.14-0.28,0.36-0.47,0.77-0.47h0.73c0.5,0,0.77,0.33,0.82,0.7l5.37,31.47c0.14,0.66-0.23,1.08-0.82,1.08h-4.14
		c-0.41,0-0.77-0.38-0.86-0.7l-2.69-17.75c-0.05,0-0.14,0-0.14,0l-7.97,18.4c-0.09,0.28-0.36,0.52-0.77,0.52h-0.82
		c-0.41,0-0.64-0.23-0.77-0.52l-8.06-18.4c0,0-0.09,0-0.14,0l-2.64,17.75c-0.05,0.33-0.41,0.7-0.82,0.7h-4.1
		c-0.59,0-0.96-0.42-0.86-1.08L152.36,105.45z"/>
	<path d="M185.32,136.77l14.16-31.52c0.14-0.28,0.36-0.52,0.77-0.52h0.46c0.46,0,0.64,0.23,0.77,0.52l14.02,31.52
		c0.27,0.61-0.09,1.22-0.77,1.22h-3.96c-0.68,0-1-0.28-1.32-0.94l-2.23-5.06H193.6l-2.23,5.06c-0.18,0.47-0.59,0.94-1.32,0.94h-3.96
		C185.41,137.99,185.05,137.38,185.32,136.77z M204.98,126.8l-4.55-10.3h-0.14l-4.46,10.3H204.98z"/>
	<path d="M222.92,110.83h-6.96c-0.5,0-0.86-0.42-0.86-0.89v-3.84c0-0.47,0.36-0.89,0.86-0.89h19.89c0.5,0,0.86,0.42,0.86,0.89v3.84
		c0,0.47-0.36,0.89-0.86,0.89h-6.96v26.27c0,0.47-0.41,0.89-0.86,0.89h-4.23c-0.46,0-0.87-0.42-0.87-0.89V110.83z"/>
	<path d="M242.13,106.1c0-0.47,0.36-0.89,0.87-0.89h18.53c0.5,0,0.87,0.42,0.87,0.89v3.84c0,0.47-0.36,0.89-0.87,0.89h-13.47v7.68
		h11.24c0.46,0,0.87,0.42,0.87,0.89v3.89c0,0.51-0.41,0.89-0.87,0.89h-11.24v8.2h13.47c0.5,0,0.87,0.42,0.87,0.89v3.84
		c0,0.47-0.36,0.89-0.87,0.89h-18.53c-0.5,0-0.87-0.42-0.87-0.89V106.1z"/>
	<path d="M272.9,105.45c0.05-0.38,0.32-0.7,0.82-0.7h0.73c0.36,0,0.64,0.19,0.77,0.47l10.01,22.1c0.09,0,0.09,0,0.14,0l10.01-22.1
		c0.14-0.28,0.36-0.47,0.77-0.47h0.73c0.5,0,0.77,0.33,0.82,0.7l5.37,31.47c0.14,0.66-0.23,1.08-0.82,1.08h-4.14
		c-0.41,0-0.77-0.38-0.87-0.7l-2.69-17.75c-0.05,0-0.14,0-0.14,0l-7.96,18.4c-0.09,0.28-0.36,0.52-0.77,0.52h-0.82
		c-0.41,0-0.64-0.23-0.77-0.52l-8.06-18.4c0,0-0.09,0-0.14,0l-2.64,17.75c-0.05,0.33-0.41,0.7-0.82,0.7h-4.1
		c-0.59,0-0.96-0.42-0.87-1.08L272.9,105.45z"/>
	<path d="M305.86,136.77l14.16-31.52c0.14-0.28,0.36-0.52,0.77-0.52h0.46c0.46,0,0.64,0.23,0.77,0.52l14.02,31.52
		c0.27,0.61-0.09,1.22-0.77,1.22h-3.96c-0.68,0-1-0.28-1.32-0.94l-2.23-5.06h-13.61l-2.23,5.06c-0.18,0.47-0.59,0.94-1.32,0.94
		h-3.96C305.95,137.99,305.58,137.38,305.86,136.77z M325.52,126.8l-4.55-10.3h-0.14l-4.46,10.3H325.52z"/>
	<path d="M343.46,110.83h-6.96c-0.5,0-0.86-0.42-0.86-0.89v-3.84c0-0.47,0.36-0.89,0.86-0.89h19.89c0.5,0,0.86,0.42,0.86,0.89v3.84
		c0,0.47-0.36,0.89-0.86,0.89h-6.96v26.27c0,0.47-0.41,0.89-0.87,0.89h-4.23c-0.46,0-0.86-0.42-0.86-0.89V110.83z"/>
	<path d="M362.66,106.1c0-0.47,0.41-0.89,0.87-0.89h4.23c0.46,0,0.86,0.42,0.86,0.89v31c0,0.47-0.41,0.89-0.86,0.89h-4.23
		c-0.46,0-0.87-0.42-0.87-0.89V106.1z"/>
	<path d="M391.7,104.74c4.6,0,7.92,1.5,11.02,4.36c0.41,0.38,0.41,0.94,0.04,1.31l-2.78,2.95c-0.32,0.37-0.77,0.37-1.14,0
		c-1.91-1.73-4.46-2.76-7.01-2.76c-5.83,0-10.15,5.01-10.15,10.91c0,5.85,4.37,10.82,10.2,10.82c2.73,0,5.05-1.08,6.96-2.67
		c0.36-0.33,0.87-0.28,1.14,0l2.82,3c0.36,0.33,0.27,0.94-0.05,1.26c-3.09,3.09-7.01,4.54-11.06,4.54c-9.1,0-16.43-7.45-16.43-16.81
		C375.27,112.28,382.6,104.74,391.7,104.74z"/>
	<path d="M405.27,136.77l14.16-31.52c0.14-0.28,0.36-0.52,0.77-0.52h0.46c0.46,0,0.64,0.23,0.77,0.52l14.02,31.52
		c0.27,0.61-0.09,1.22-0.77,1.22h-3.96c-0.68,0-1-0.28-1.32-0.94l-2.23-5.06h-13.61l-2.23,5.06c-0.18,0.47-0.59,0.94-1.32,0.94
		h-3.96C405.36,137.99,405,137.38,405.27,136.77z M424.93,126.8l-4.55-10.3h-0.14l-4.46,10.3H424.93z"/>
	<path d="M438.41,133.4l1.64-2.9c0.36-0.66,1.14-0.66,1.55-0.33c0.23,0.14,3.92,2.9,6.87,2.9c2.37,0,4.14-1.59,4.14-3.61
		c0-2.39-1.96-4.03-5.78-5.62c-4.28-1.78-8.56-4.59-8.56-10.12c0-4.17,3-8.99,10.24-8.99c4.64,0,8.19,2.44,9.1,3.14
		c0.46,0.28,0.59,1.08,0.27,1.55l-1.73,2.67c-0.36,0.56-1.05,0.94-1.59,0.56c-0.36-0.23-3.82-2.58-6.33-2.58
		c-2.59,0-4.01,1.78-4.01,3.28c0,2.2,1.68,3.7,5.37,5.24c4.42,1.83,9.51,4.54,9.51,10.58c0,4.82-4.05,9.27-10.47,9.27
		c-5.74,0-9.1-2.76-10.01-3.65C438.23,134.39,438,134.15,438.41,133.4z"/>
</g>
<g>
	<path d="M317.64,104.62l-0.58-1.26c-0.14-0.28,0-0.53,0.21-0.67l5.56-3.41c0.31-0.21,0.72-0.21,0.89,0.11l0.99,1.79
		c0.21,0.46,0.07,0.81-0.2,0.95l-5.97,2.7C318.02,105.04,317.81,104.93,317.64,104.62z"/>
</g>
</svg>
